<svg width="119" height="56" viewBox="0 0 119 56" fill="none" xmlns="http://www.w3.org/2000/svg">
<path d="M49.9513 0.00108678C44.7352 -0.0777836 40.1057 4.14362 40.1057 10.2528V37.7629C40.111 38.7532 39.3721 39.6315 38.2965 39.6315H29.7059C11.1167 39.6537 12.7778 15.8427 28.6007 15.8204C35.6348 15.8104 38.0934 15.8204 38.0934 15.8204V9.14897H28.2633C22.1034 9.15894 17.4401 11.5071 14.3033 15.0078C11.1664 18.5087 9.56051 23.1709 9.56301 27.8041C9.56545 32.2646 11.0853 36.8939 14.2599 40.4024C17.4345 43.9109 22.2615 46.3103 28.9328 46.3103H45.1474C46.0848 46.3103 46.8794 45.5155 46.8794 44.5886V10.9787C46.8691 9.22111 47.7798 7.80812 49.2441 7.34041H49.2443C50.6647 6.888 52.2247 7.47722 53.1651 8.81604L53.1692 8.82202L53.1729 8.82823C55.4515 12.5659 61.1453 21.7349 66.2883 30.0001C68.8597 34.1327 71.2937 38.0397 73.0946 40.9296C73.995 42.3746 74.7373 43.5653 75.2594 44.4028C75.7774 45.2338 76.0652 45.6954 76.0973 45.7476C76.4766 46.2842 76.9539 46.4858 77.3516 46.3604H77.3518L77.3523 46.3601C77.5779 46.29 77.7553 46.1309 77.8882 45.869C78.021 45.6072 78.0997 45.2436 78.0997 44.8068V10.9835C78.0942 9.23152 78.9992 7.81557 80.4685 7.35053C81.8802 6.89744 83.4449 7.48669 84.3759 8.82685L84.3796 8.83214L84.3828 8.83766C86.6666 12.5729 92.3628 21.742 97.5069 30.0072C102.648 38.2677 107.245 45.6372 107.317 45.752C107.317 45.7522 107.317 45.7525 107.317 45.7527C107.689 46.2859 108.197 46.4987 108.621 46.365C108.85 46.2923 109.034 46.13 109.17 45.8679C109.307 45.6058 109.389 45.2448 109.389 44.8119V0.209396V0.207096H102.664V26.2533C102.664 26.2533 98.5004 19.185 91.4018 6.98541C84.4568 -4.96592 71.3504 -0.0262299 71.3451 10.2577V26.2485C71.3451 26.2485 67.2809 19.1751 60.1871 6.97552C57.3637 2.12225 53.5202 0.0550507 49.9513 0.00108678ZM29.4781 0.207096C-9.16249 0.202282 -8.79592 55.3093 29.9985 55.3344H45.157C51.6805 55.3391 55.8695 51.4661 55.8643 44.3279V30.3696C55.8643 30.3696 64.366 44.4796 67.7022 50.0026C73.3783 59.3935 87.1139 57.547 87.0793 45.8166V30.3795C87.0793 30.3795 95.5807 44.4842 98.9216 50.0148C104.598 59.4028 118.334 57.5544 118.299 45.8212V0.207096H111.585V44.8114V44.8119C111.59 46.9196 110.41 48.0977 109.285 48.4536L109.284 48.4538C107.912 48.8916 106.42 48.3057 105.492 46.9752L105.489 46.9706L105.486 46.966C105.294 46.6591 87.0987 17.4923 82.5494 10.0406C82.172 9.5041 81.6191 9.28367 81.1286 9.4389C80.6193 9.60222 80.2955 10.1419 80.2955 10.9826V44.8013V44.8017C80.3008 46.9181 79.1405 48.0927 78.0207 48.4536L78.02 48.4538L78.0193 48.454C76.6676 48.8793 75.199 48.2945 74.2768 46.9651L74.2745 46.9619L74.2724 46.9586C74.2356 46.9014 73.9421 46.4312 73.4171 45.5901C72.892 44.7491 72.1473 43.5553 71.2447 42.1077C69.4394 39.2126 67.003 35.3023 64.4305 31.1688C59.288 22.9056 53.6062 13.7558 51.3347 10.0307C50.9577 9.49506 50.3998 9.27855 49.9083 9.4343V9.43407C49.3933 9.59768 49.0664 10.1372 49.0711 10.9713V10.972V44.5884C49.0711 46.7459 47.3043 48.5037 45.1474 48.5037H28.9326C21.5551 48.5037 16.1531 45.8229 12.6091 41.8907C9.06517 37.9585 7.37661 32.7864 7.37156 27.8041C7.36652 22.6345 9.15505 17.4307 12.6656 13.5113C16.1762 9.59179 21.4133 6.96531 28.2582 6.95529H28.2584H38.0934V0.207096H29.4781Z" fill="white"/>
</svg>
