<svg width="224" height="42" viewBox="0 0 224 42" fill="none" xmlns="http://www.w3.org/2000/svg">
<rect width="224" height="42" fill="white"/>
<path d="M16.6394 29V13.116H20.9074C24.1634 13.116 26.0334 14.48 26.0334 17.208C26.0334 18.594 25.3514 19.738 24.0754 20.508C25.7474 21.564 26.4074 22.444 26.4074 24.424C26.4074 27.57 24.2954 29 21.0834 29H16.6394ZM19.6754 21.916V26.492H20.9514C22.5354 26.492 23.3714 25.568 23.3714 24.182C23.3714 22.664 22.3154 21.916 20.7314 21.916H19.6754ZM19.6754 15.624V19.408H20.7314C22.0954 19.408 22.9974 18.616 22.9974 17.538C22.9974 16.372 22.3154 15.624 20.8854 15.624H19.6754ZM39.6 29H31.064V13.116H39.38V15.8H34.1V19.452H38.126V22.136H34.1V26.316H39.6V29ZM47.3 29H44.264V13.116H52.184V15.8H47.3V19.452H51.128V22.136H47.3V29ZM55.9754 23.896V18.22C55.9754 14.304 58.0434 12.896 60.9914 12.896C63.9394 12.896 66.0074 14.304 66.0074 18.22V23.896C66.0074 27.812 63.9394 29.22 60.9914 29.22C58.0434 29.22 55.9754 27.812 55.9754 23.896ZM59.0114 17.824V24.292C59.0114 26.052 59.7814 26.536 60.9914 26.536C62.2014 26.536 62.9714 26.052 62.9714 24.292V17.824C62.9714 16.064 62.2014 15.58 60.9914 15.58C59.7814 15.58 59.0114 16.064 59.0114 17.824ZM81.048 29H77.792L75.152 22.532H73.7V29H70.664V13.116H75.064C78.716 13.116 80.454 14.876 80.454 17.868C80.454 19.848 79.75 21.278 78.056 21.916L81.048 29ZM73.7 15.624V20.024H75.262C76.604 20.024 77.418 19.364 77.418 17.824C77.418 16.284 76.604 15.624 75.262 15.624H73.7ZM93.6246 29H85.0886V13.116H93.4046V15.8H88.1246V19.452H92.1506V22.136H88.1246V26.316H93.6246V29Z" fill="black"/>
<path d="M142.604 16.548L141.108 22.972H144.122L142.648 16.548H142.604ZM139.7 29H136.774L140.712 13.116H144.606L148.434 29H145.53L144.76 25.656H140.558L139.7 29ZM155.312 29H152.276V13.116H160.196V15.8H155.312V19.452H159.14V22.136H155.312V29ZM163.328 13.116H173.448V15.8H169.906V29H166.87V15.8H163.328V13.116ZM185.988 29H177.452V13.116H185.768V15.8H180.488V19.452H184.514V22.136H180.488V26.316H185.988V29ZM201.036 29H197.78L195.14 22.532H193.688V29H190.652V13.116H195.052C198.704 13.116 200.442 14.876 200.442 17.868C200.442 19.848 199.738 21.278 198.044 21.916L201.036 29ZM193.688 15.624V20.024H195.25C196.592 20.024 197.406 19.364 197.406 17.824C197.406 16.284 196.592 15.624 195.25 15.624H193.688Z" fill="black"/>
<rect x="110" width="2" height="42" fill="#010101"/>
</svg>
