<svg width="248" height="106" viewBox="0 0 248 106" fill="none" xmlns="http://www.w3.org/2000/svg">
<path d="M98.05 59.45C98.5 61.55 88.9 66.05 81.25 68C78.1 70.1 75.7 70.7 74.2 70.55C72.4 70.55 71.95 70.25 71.65 69.8C68.95 72.5 73.3 74.75 83.5 70.7C84.25 70.55 85.45 71 84.85 71.3C82 72.65 75.7 75.95 73.6 75.95C70.15 75.95 67.6 76.85 64.45 77.9C55 81.2 40 86.9 29.2 91.25C27.25 92 24.1 95 22.3 95.15C20.5 95.45 16.75 95.75 14.8 95.75C13.6 95.75 12.7 95 12.25 94.1H8.8C6.55 91.85 4 87.2 2.05 87.2H0.25C2.8 60.8 29.8 20.3 43.45 2.75V0.349994C51.85 0.349994 56.2 7.1 56.2 14.3C56.2 16.1 48.55 33.2 45.85 38.15C44.05 41.3 39.25 45.8 36.7 49.4C35.35 51.35 34.45 55.25 33.25 57.35C31.6 60.35 26.5 62.9 28.3 67.25C38.5 64.1 40.45 63.8 41.65 63.5C43.3 63.05 45.25 62.6 47.2 62.6C49.6 62.6 51.85 63.35 53.05 65.45C53.8 64.7 59.8 62.3 60.55 62.3C62.65 62.3 62.8 63.05 64.9 63.05C66.85 63.05 74.65 60.5 79.75 59C79.9 59.3 80.5 59.6 81.55 59.75V59.9C76.9 61.4 70.75 62.9 66.85 65.3L68.35 66.2C73 64.55 82.45 60.35 87.7 59.15C89.5 59.75 91.6 61.1 91.75 61.4C94 60.5 97.9 58.4 98.05 59.45ZM68.35 74.6L65.95 73.55C58 75.05 41.35 81.2 31 86.3L31.15 86.9L68.35 74.6ZM96.55 56.6C96.55 57.5 94 58.7 92.95 59.45C92.2 58.85 91.45 58.4 90.7 58.1C91.3 57.65 96.55 55.85 96.55 56.6ZM85.9 58.1L83.35 59C82.9 59.15 81.7 58.4 82.15 58.25L85.15 57.35C86.8 56.9 86.65 57.8 85.9 58.1ZM96.25 66.05L87.25 70.25C86.2 70.7 85.6 70.4 85.15 69.8V69.65C94 65.75 95.05 65.15 96.25 66.05ZM53.65 66.65L54.55 67.85L57.85 66.05C57.1 65.6 55.45 65.45 53.65 66.65ZM35.35 48.95V46.25C33.85 46.25 33.25 48.05 33.25 48.95H35.35ZM28.45 58.25L26.65 57.8C25.6 60.5 23.8 63.05 25.75 63.95L28.45 58.25ZM146.846 12.95C146.846 17 146.246 22.4 145.496 26.9H143.846C139.796 32.6 137.396 43.1 130.496 46.85L131.096 48.65L125.246 51.95C119.396 60.35 116.846 70.7 113.546 79.25C113.096 80.45 111.146 82.85 113.096 83.45C113.546 83.6 114.596 80.45 114.746 80C118.196 72.2 120.746 60.5 126.146 54.35C128.246 53.6 126.746 55.4 126.446 55.85C121.196 64.7 118.646 74.9 114.296 85.4C111.296 92.45 110.246 98.9 110.996 101.9C108.296 101 105.896 99.95 103.496 98.6V93.8C102.446 94.7 101.996 95.75 101.846 97.4C98.3957 94.85 95.5457 91.4 93.5957 86.15C93.5957 59.15 121.496 22.25 132.296 2.44999C133.196 1.25 135.146 0.349994 136.796 0.349994C138.296 0.349994 139.796 0.949995 141.446 1.4V5C144.446 6.2 146.846 9.65 146.846 12.95ZM112.046 86C109.946 83.9 110.546 86.3 110.396 86.75L108.746 90.8C108.596 91.25 109.046 92.75 109.946 91.25L112.046 86ZM228.648 21.35C228.948 22.85 226.248 23.75 224.748 24.95C211.098 31.1 197.148 31.55 183.948 35.3C182.298 38 180.198 41.45 177.648 45.5C183.648 44.9 196.098 39.8 200.448 39.8C204.798 39.8 206.148 41.3 209.298 46.7C208.698 48.35 209.448 49.85 210.948 50.6L209.898 53.9C200.748 55.4 178.398 59 170.898 62.3C166.998 63.95 163.548 80.45 163.398 83.9C168.048 87.35 175.098 85.85 179.448 84.8L180.348 86.3C181.398 86.3 182.748 85.4 182.748 84.5C184.998 84.2 185.748 87.8 187.848 87.2C197.598 84.5 209.148 80.6 216.648 78.2C217.098 78.05 217.698 77.9 217.848 78.35C218.148 79.1 215.898 80.15 214.698 80.75L204.498 84.5C205.398 85.1 207.048 86.15 208.098 86.75C208.548 86.9 208.248 87.2 207.798 87.35C200.298 89.9 190.998 92.45 182.598 94.55C184.848 95.6 188.148 95.6 190.998 94.85C196.998 93.2 205.248 90.35 212.598 87.8C213.048 87.65 214.098 87.2 213.348 88.7C212.448 90.2 211.248 91.25 209.148 92C199.398 95.75 186.798 100.25 177.648 100.25C160.098 100.25 147.648 92.3 148.248 70.4C148.548 59.3 157.698 45.65 168.648 22.7C167.898 18.95 168.048 15.35 170.748 11.3C178.248 12.2 182.598 0.649999 187.848 0.649999C190.698 0.649999 198.648 2.9 200.598 3.5C200.748 6.8 199.998 10.25 197.898 14.3C200.448 14.9 207.648 15.65 210.948 15.65L212.298 18.5C213.048 18.5 214.398 17.6 216.048 17.6C217.698 17.6 221.298 19.1 223.398 19.4C223.698 19.4 223.998 19.7 223.698 20C217.698 25.4 213.498 22.1 214.548 26.6C219.048 24.8 222.798 23.75 226.998 21.8C227.598 21.5 228.498 20.45 228.648 21.35ZM216.198 20.9C216.048 20.15 213.948 20 213.048 20.3L213.498 22.1L216.198 20.9ZM163.998 66.05V67.7H164.148C165.048 66.5 166.248 65.3 166.848 63.8C164.898 63.65 164.298 64.55 163.998 66.05ZM162.498 78.8L161.298 77.3C160.698 80 160.548 81.95 161.748 82.85L162.498 78.8ZM207.498 77.9C205.698 80 201.798 81.05 198.948 80.9C194.748 84.05 189.498 86.15 187.698 83.3C194.598 81.8 201.498 79.55 207.048 77.3C207.648 77 207.798 77.45 207.498 77.9ZM181.398 35.45L179.448 35.9L176.898 40.1L178.848 39.65L181.398 35.45ZM175.998 42.2C174.948 42.2 172.998 44.3 172.548 45.95L174.498 45.65L175.998 42.2ZM165.198 68.6L163.698 68.75L162.048 74.3L163.098 75.65L165.198 68.6ZM247.462 90.35C246.712 93.8 239.212 103.25 233.812 105.05L225.562 95.6L227.062 93.65C223.462 85.4 229.462 74.45 235.312 74.45C240.112 74.45 245.212 82.1 247.462 90.35Z" fill="#F8D000"/>
</svg>
