<svg width="180" height="40" viewBox="0 0 180 40" fill="none" xmlns="http://www.w3.org/2000/svg">
<g clip-path="url(#clip0_416_753)">
<path d="M92.0737 0.214844C93.2551 0.214844 94.1939 1.13366 94.1939 2.30831C94.1939 3.48074 93.2551 4.4129 92.0626 4.4129C90.8702 4.4129 89.918 3.48074 89.918 2.30831C89.918 1.13588 90.8702 0.214844 92.0626 0.214844H92.0737ZM92.0493 0.637542C91.1482 0.637542 90.4497 1.3895 90.4497 2.30831C90.4497 3.24047 91.1482 3.97908 92.0737 3.97908C92.9747 3.99243 93.66 3.24047 93.66 2.31944C93.66 1.38727 92.9747 0.635317 92.0604 0.635317H92.0493V0.637542ZM91.7311 3.39398H91.2484V1.30051C91.4397 1.27604 91.7067 1.23599 92.0493 1.23599C92.443 1.23599 92.621 1.30051 92.7589 1.40285C92.8858 1.49184 92.9747 1.64534 92.9747 1.85002C92.9747 2.10586 92.7834 2.27049 92.5432 2.34836V2.37283C92.7456 2.43735 92.8479 2.60198 92.9102 2.88452C92.9725 3.20265 93.0237 3.31834 93.0615 3.39398H92.5543C92.4898 3.31611 92.4519 3.13814 92.3896 2.88452C92.3518 2.66649 92.225 2.56416 91.958 2.56416H91.7289V3.39398H91.7311ZM91.7445 2.21932H91.9736C92.2406 2.21932 92.4564 2.13033 92.4564 1.91231C92.4564 1.72098 92.3162 1.59417 92.0137 1.59417C91.8869 1.59417 91.7979 1.60752 91.7467 1.61865V2.21932H91.7445Z" fill="#FFD100"/>
<path d="M14.1704 11.3228C13.6676 11.3228 12.6108 11.4296 12.0191 11.6075L12.3528 8.61751H24.6399V0.0078125H4.64633L2.04785 23.5743L7.7298 23.5877L6.94892 22.9581C6.94892 22.9581 6.92222 22.729 6.54624 22.7868C6.54624 22.7868 6.16804 22.927 5.98339 22.4509C5.98339 22.4509 5.76314 22.0727 6.20364 22.0638C6.20364 22.0638 6.59296 22.1194 6.91332 22.4509C6.91332 22.4509 7.52735 22.9336 8.15695 22.6288C8.15695 22.6288 8.17697 22.5977 8.21034 22.5465C8.43949 22.1349 8.71535 21.7523 9.02904 21.4075C8.96452 21.3496 8.78654 21.1672 8.75317 20.8869C8.75317 20.8869 9.03126 20.7957 9.3583 20.8001C9.3583 20.8001 9.61637 20.918 9.90113 20.5821C9.90113 20.5821 9.89446 20.5977 9.88111 20.6244C10.9156 19.8413 12.2015 19.3741 13.5942 19.3741C16.9958 19.3741 19.7633 22.1416 19.7633 25.5432C19.7633 28.9448 16.9958 31.7124 13.5942 31.7124C11.5096 31.7124 9.66754 30.6735 8.55072 29.085C8.5307 29.0561 8.51068 29.0272 8.48843 28.9938C8.44839 28.9337 8.41057 28.8736 8.37052 28.8136C8.32603 28.7424 8.28153 28.6667 8.23704 28.5911C8.19254 28.511 8.14582 28.4332 8.10355 28.3508C7.93892 28.0416 7.78319 27.6923 7.66973 27.3186H1.66519L1.55396 28.3308H1.54283L1 33.2608C2.53951 35.7659 4.80428 37.7792 7.50065 39.0073C7.50065 39.0073 6.30375 37.9884 5.42721 36.7826C5.42721 36.7826 6.14357 37.5367 7.0824 37.7169C7.0824 37.7169 7.45838 37.7792 7.56294 37.51C7.56294 37.51 7.74982 37.1763 7.24926 36.9272C7.24926 36.9272 6.53957 36.6557 6.62411 36.1997C6.62411 36.1997 6.64413 35.8037 6.97784 35.7414C6.97784 35.7414 7.20699 35.6991 7.29153 35.5545C7.37607 35.4099 7.64526 35.2208 7.81434 35.4099C7.98119 35.5968 8.08576 35.7436 8.37719 35.6813C8.37719 35.6813 8.69088 35.5367 8.62859 35.9105C8.62859 35.9105 8.48176 36.2842 8.77542 36.3465C8.77542 36.3465 9.17142 36.4711 9.08911 35.8482C9.08911 35.8482 8.98455 35.5567 8.58854 35.3076C8.58854 35.3076 8.27486 35.1407 8.2971 34.787C8.2971 34.787 8.44394 34.391 8.00567 34.2464C8.00567 34.2464 7.73425 34.1641 7.44281 34.1841C7.44281 34.1841 6.89998 34.1841 6.85771 33.8103C6.85771 33.8103 6.81544 33.3943 7.316 33.4366C7.81656 33.4788 7.98342 33.6457 7.98342 33.6457C7.98342 33.6457 8.1703 33.8526 8.58854 33.8125C8.89778 33.7814 8.92225 33.8949 8.92225 33.8949C8.92225 33.8949 9.04684 34.124 8.73538 34.2486C8.42169 34.3732 8.67308 34.52 8.67308 34.52C8.67308 34.52 8.92448 34.8315 9.23594 34.7492C9.54963 34.6668 9.44506 34.6045 9.48733 34.4577C9.5296 34.3131 9.77877 34.2508 9.9879 34.52C10.197 34.7914 10.2593 34.916 10.3016 35.1652C10.3439 35.4143 10.1548 35.3521 9.9256 35.2074C9.69646 35.0628 9.57187 34.936 9.46731 35.0829C9.46731 35.0829 9.34273 35.2275 9.46731 35.3543C9.5919 35.4789 9.57187 35.6457 9.44729 35.7503C9.3227 35.8548 9.34273 36.0217 9.59412 36.1463C9.59412 36.1463 9.67866 36.2286 9.86554 36.1663C10.0524 36.104 10.2615 36.2086 10.2193 36.4377C10.177 36.6669 10.3439 36.7714 10.3439 36.7714L11.0335 37.5412C11.0335 37.5412 11.1804 37.7481 11.2204 37.5212C11.2204 37.5212 11.325 36.8337 10.7621 36.2731C10.7621 36.2731 10.533 36.1285 10.6575 36.0017C10.7821 35.8771 10.8444 35.8771 11.0758 35.9194C11.0758 35.9194 11.3895 35.9616 11.4718 35.6279C11.5563 35.2942 11.3472 34.9004 10.6375 34.5044C9.92783 34.1084 10.3661 33.3609 10.3661 33.3609C10.3661 33.3609 10.5129 33.174 10.7198 33.3609C10.929 33.5478 11.0958 33.8815 11.2004 34.1507C11.3049 34.4221 11.6386 34.9205 12.286 34.8582C12.286 34.8582 12.7243 34.8582 12.5997 34.3999C12.5997 34.3999 13.1225 35.045 13.2249 35.5033C13.3294 35.9616 12.7866 35.9394 12.7866 35.9394C12.7866 35.9394 12.662 35.9194 12.5575 35.8771C12.5575 35.8771 12.1615 35.5434 11.7232 36.0217C11.2849 36.5 11.7655 37.2075 11.9101 37.3321C12.0569 37.4566 12.4952 37.955 12.682 38.351C12.8689 38.747 13.4118 39.3699 14.1837 39.2876C14.9557 39.2053 14.8734 39.0807 14.9134 38.8516C14.9557 38.6224 14.7466 38.4355 14.3706 38.2687C13.9946 38.1018 13.2849 37.8526 13.0135 37.3944C13.0135 37.3944 12.929 37.2075 13.0981 37.1875C13.2649 37.1674 13.4941 37.1051 13.3495 36.7714C13.2026 36.4377 13.4963 36.3554 13.7032 36.3554C13.9123 36.3554 14.4952 36.3354 14.4752 36.6669C14.4551 37.0006 14.1837 37.1252 14.5597 37.4566C14.9357 37.7904 15.7499 38.8916 16.7711 39.7036C16.7711 39.7036 16.9179 39.8482 17.0425 39.8482C17.0559 39.8482 17.1092 39.8616 17.1827 39.8905C23.6032 38.2842 28.373 32.4666 28.373 25.5566C28.3686 17.3963 22.3173 11.3228 14.1704 11.3228ZM7.58074 20.7779C7.46951 20.9047 7.25816 20.9314 7.21589 20.8468C7.17362 20.7623 7.10465 20.7489 7.10465 20.7489C6.92222 20.6644 7.00676 20.4976 7.00676 20.4976C7.21811 20.2884 7.45616 20.4976 7.45616 20.4976C7.45616 20.4976 7.69198 20.6511 7.58074 20.7779ZM3.08012 33.0361C2.98223 33.114 2.91104 33.065 2.8265 33.0561C2.74196 33.0472 2.6285 33.0361 2.64185 33.2208C2.6552 33.4054 2.69747 33.57 2.69747 33.6479C2.69747 33.7258 2.61293 33.8125 2.48612 33.7169C2.48612 33.7169 2.05897 33.4121 1.97888 32.9404C1.97888 32.9404 1.93661 32.7669 2.13461 32.7669C2.33261 32.7669 2.30369 32.7469 2.38823 32.7091C2.47277 32.6713 2.71304 32.6112 2.92439 32.7291C3.13574 32.8426 3.17801 32.9582 3.08012 33.0361ZM3.88547 35.3832C3.61183 35.2208 3.57178 34.7981 3.57178 34.7981C3.54509 34.54 3.70749 34.6068 3.70749 34.6068C4.00783 34.7024 4.10349 34.9205 4.18581 35.0428C4.26812 35.1652 4.15911 35.5456 3.88547 35.3832ZM5.8588 36.2798C5.8588 36.2798 5.61186 36.2798 5.64078 36.0751C5.66748 35.8704 5.57181 35.7347 5.57181 35.7347C5.44945 35.53 5.58516 35.5033 5.58516 35.5033C5.99451 35.4344 6.09018 35.7214 6.09018 35.7214C6.3082 36.2798 5.8588 36.2798 5.8588 36.2798ZM8.40389 33.3921C8.33492 33.4188 8.29488 33.4321 8.04794 33.1607C7.80099 32.8893 7.91223 32.7647 7.91223 32.7647C8.04794 32.6023 8.26818 32.6957 8.26818 32.6957C8.44616 32.7647 8.48621 32.8871 8.48621 32.8871C8.56852 33.3921 8.47286 33.3654 8.40389 33.3921ZM9.60524 32.5978C9.53628 32.5578 9.38722 32.3665 9.38722 32.3665C9.38722 32.3665 8.49955 31.3164 8.34827 31.0984C8.19699 30.8804 8.44394 30.758 8.44394 30.758C8.44394 30.758 8.78654 30.5667 9.10023 30.8403C9.41392 31.1139 9.37387 31.5077 9.37387 31.5077C9.37387 31.5077 9.36052 31.9571 9.50958 32.1751C9.66086 32.3932 9.67421 32.6401 9.60524 32.5978ZM19.9925 28.115C19.9925 28.115 20.3485 27.9927 20.3485 28.3864C20.3485 28.7802 19.9791 28.7268 19.9791 28.7268C19.9791 28.7268 19.7322 28.6868 19.7055 28.4265C19.6788 28.1706 19.9925 28.115 19.9925 28.115ZM16.2817 35.2453C16.4374 35.272 16.7244 35.5812 16.7622 35.6079C16.8134 35.6457 16.9046 35.9438 16.6065 36.0106C16.3083 36.0751 16.3328 35.8281 16.2283 35.6479C16.1237 35.4655 16.1237 35.401 16.1237 35.401C16.1237 35.401 16.1259 35.2186 16.2817 35.2453ZM15.3962 35.4855C15.4096 35.3432 15.4741 35.3432 15.5786 35.3565C15.6832 35.3699 15.7989 35.5256 15.8656 35.6034C15.9324 35.6813 16.0347 35.7859 15.7366 35.8637C15.4363 35.9394 15.3895 35.5656 15.3962 35.4855ZM16.8423 38.6891C16.6576 38.8738 16.1771 38.4578 16.1771 38.4578C15.6787 38.0773 15.7277 37.5145 15.7277 37.5145C15.7277 37.5145 15.6943 37.0851 15.9769 37.3988C16.2594 37.7125 16.4908 37.995 16.7244 38.2598C16.9602 38.5223 16.9602 38.5735 16.8423 38.6891ZM17.7122 37.6524C17.6476 37.5612 17.4007 37.4833 17.1916 37.4589C16.9824 37.4322 16.9313 37.3677 16.9046 37.2119C16.8779 37.0562 16.7755 36.9138 16.7755 36.9138C16.7244 36.8092 16.6843 36.8226 16.7355 36.7314C16.7867 36.6402 16.9179 36.7447 16.9179 36.7447C16.9179 36.7447 17.1649 36.9516 17.503 37.2764C17.8412 37.6013 17.7767 37.7436 17.7122 37.6524ZM17.8545 36.6224C17.79 36.856 17.4763 36.6224 17.4763 36.6224C17.4763 36.6224 17.2561 36.5178 17.3339 36.351C17.4118 36.1819 17.6654 36.2642 17.6988 36.2864C17.79 36.351 17.9213 36.3888 17.8545 36.6224ZM18.869 38.4066C18.8201 38.7381 18.5375 38.6046 18.4708 38.589C18.404 38.5735 18.1215 38.3577 18.1215 38.3577C17.8568 38.0773 18.2083 37.9327 18.2884 37.8615C18.4552 37.7125 18.6198 37.9439 18.6198 37.9439C18.9179 38.2086 18.869 38.4066 18.869 38.4066ZM18.6465 31.9705C18.7822 32.0528 18.9335 32.2575 18.8935 32.3798C18.8534 32.5022 18.6755 32.4488 18.5931 32.4065C18.5108 32.3665 18.3885 32.3932 18.3885 32.3932C18.3885 32.3932 17.7322 32.3932 17.7455 31.9705C17.7589 31.5478 17.4452 31.4388 17.4452 31.4388C17.3762 31.3987 17.2539 31.3031 17.2672 31.2074C17.2806 31.1117 17.3362 31.1384 17.4852 31.085C17.6365 31.0294 17.7856 30.798 17.7856 30.798C17.7856 30.798 17.9502 30.6201 18.0726 30.7847C18.1949 30.9471 18.3195 30.8804 18.3195 30.8804C18.3195 30.8804 18.4285 30.689 18.3062 30.54C18.1838 30.3909 18.2372 30.2952 18.2372 30.2952C18.2372 30.2952 18.3462 30.0639 18.5931 30.3353C18.8401 30.6067 18.8534 30.4977 19.2895 30.649C19.7278 30.798 19.9725 31.194 19.9057 31.2764C19.8368 31.3587 19.6744 31.3164 19.5364 31.263C19.4007 31.2096 19.1671 31.1673 19.1671 31.1673C19.1671 31.1673 18.6621 31.045 18.4419 31.3453C18.2216 31.6434 18.5086 31.8882 18.6465 31.9705ZM20.3885 32.5622C20.3885 32.5622 20.1571 32.6179 19.7322 32.4399C19.3073 32.2619 19.5542 31.8815 19.5542 31.8815C19.5542 31.8815 19.6098 31.7725 19.7322 31.7725C20.0058 31.7725 20.1015 31.9638 20.3485 32.2619C20.5954 32.56 20.3885 32.5622 20.3885 32.5622ZM23.4764 33.2319C23.4764 33.2319 23.1894 33.5723 23.5031 33.6679C23.8168 33.7636 23.8457 33.9549 23.7901 34.1996C23.7345 34.4444 23.2851 34.7447 23.2851 34.7447C23.2851 34.7447 23.0804 34.827 23.2851 35.0317C23.4898 35.2364 23.928 35.4277 23.7634 35.4677C23.5988 35.5078 23.4208 35.441 23.2028 35.3053C22.9848 35.1696 22.5465 35.0873 22.2862 35.1429C22.0259 35.1986 21.7812 35.1563 21.7812 35.1563C21.7812 35.1563 21.1805 35.074 21.1938 34.7603C21.2072 34.4466 21.6188 34.4332 21.6188 34.4332C21.7678 34.4444 21.75 34.4622 21.8546 34.4911C21.9236 34.5089 21.9369 34.5378 22.1638 34.5712C22.4619 34.6157 22.4375 34.1752 22.4375 34.1752C22.4508 33.9705 22.7245 33.7525 22.7245 33.7525C23.1338 33.4655 22.8891 33.045 22.8891 33.045C22.8891 33.045 22.6844 32.7447 22.8068 32.5C22.9291 32.2552 23.5454 31.7925 23.6277 31.7369C23.71 31.6835 23.888 31.5455 24.0104 31.7369C24.1327 31.9282 24.0927 32.2285 24.0927 32.2285C24.1616 32.7669 23.4764 33.2319 23.4764 33.2319ZM26.2373 25.2896C26.0593 25.0182 26.304 24.749 26.333 24.7179C26.4153 24.6222 26.5376 24.5688 26.6889 24.5821C26.9559 24.6066 26.8536 24.9915 26.7579 25.1406C26.6622 25.2896 26.4153 25.561 26.2373 25.2896Z" fill="white"/>
<path d="M36.7542 30.0281C36.8209 30.1438 36.8165 30.0993 36.9233 30.1438C37.2058 30.2639 37.3972 30.0993 37.3972 30.0993C37.3972 30.0993 37.6597 29.8835 37.2659 29.5431C36.8699 29.2027 36.3582 29.156 36.2514 29.2027C36 29.3162 36.0045 29.5654 36.3204 29.6143C36.6185 29.6632 36.7542 30.0281 36.7542 30.0281Z" fill="white"/>
<path d="M34.3687 31.5823C34.6356 30.9238 34.1551 30.6501 34.1551 30.6501C33.897 30.5456 33.8214 30.6968 33.8214 30.6968C33.6523 30.8681 33.7524 31.0506 33.7947 31.2174C33.837 31.3865 33.9437 31.3487 33.8147 31.6601C33.6857 31.9694 33.8659 32.0495 33.8659 32.0495C33.8659 32.0495 34.1017 32.2386 34.3687 31.5823Z" fill="white"/>
<path d="M40.1272 27.7002C40.2674 27.4889 40.3074 27.1841 40.1984 26.9683C40.0538 26.6768 39.5866 26.8837 39.5866 26.8837C38.8702 27.1729 38.5232 28.2052 38.5232 28.2052C38.4854 28.3076 38.4787 28.3698 38.5588 28.4366C38.6856 28.5412 38.8613 28.4766 38.9637 28.4032C39.1439 28.272 39.1773 28.025 39.5555 27.985C39.8936 27.9494 40.0538 27.807 40.1272 27.7002Z" fill="white"/>
<path d="M37.5992 32.1674C37.3634 31.8759 37.2611 31.6891 37.6994 31.3976C38.1354 31.1062 38.1666 30.986 38.2155 30.8236C38.2845 30.59 38.1488 30.3142 37.577 30.5055C37.1877 30.6345 36.9986 30.8815 37.0097 31.0839C37.0253 31.3376 37.3234 31.3042 36.9541 31.7625C36.5848 32.223 36.0308 32.3498 35.7839 32.1229C35.4657 31.8337 34.9162 32.0806 34.9162 32.0806C34.28 32.3253 33.8906 32.9371 33.8906 32.9371H38.3134C38.3134 32.49 37.8351 32.4588 37.5992 32.1674Z" fill="white"/>
<path d="M56.6338 24.2607V0.015625H43.5213L30.0684 23.8135V32.9416H33.5211C33.4855 32.7325 33.2542 32.55 32.7469 32.2208C31.8081 31.6134 31.7347 31.2263 31.7347 31.2263C31.9727 31.1084 32.411 31.1729 32.5423 31.3442C32.6735 31.5155 32.7936 31.609 32.9672 31.4621C33.1385 31.3175 33.2186 30.9482 33.1652 30.7769C33.1118 30.6056 32.9004 30.5122 33.1251 30.0116C33.3498 29.5111 33.7748 29.0483 33.9861 29.075C34.1975 29.1017 34.3532 29.0839 34.4488 29.5622C34.5178 29.9048 34.8293 30.0895 34.8293 30.0895C35.0384 30.1963 35.3165 30.0628 35.3699 29.7825C35.4233 29.5022 35.4233 29.2819 35.1496 29.0372C34.6246 28.5678 34.6424 28.0383 34.6758 27.8892C34.7981 27.333 35.0228 27.1061 35.2831 27.2975C35.3855 27.3731 35.579 27.471 35.7347 27.2797C35.8304 27.1617 35.9639 26.9126 36.2397 27.0883C36.5445 27.2819 36.1352 27.4799 36.1174 27.7669C36.0996 28.045 36.1441 28.2007 36.4467 28.4098C36.7692 28.6323 36.7225 28.8948 36.9161 28.9838C37.143 29.0884 37.1942 28.7057 37.1942 28.7057C37.1942 28.3764 37.0206 28.2363 36.8805 28.1495C36.6825 28.0249 36.6669 27.8781 36.6669 27.8781C36.6046 27.5155 36.9672 27.6356 37.1252 27.5044C37.2342 27.4131 37.2676 27.382 37.2498 27.1528C37.232 26.9237 37.3521 26.828 37.3521 26.828C37.4945 26.7568 37.6124 26.828 37.6747 26.9415C37.7548 27.0883 38.0129 27.2263 38.0129 27.2263C38.2909 27.313 38.4267 27.1951 38.6046 26.8258C38.7804 26.4565 39.1074 26.5566 39.2298 26.5188C39.6814 26.3742 39.6547 25.8492 39.5546 25.58C39.3855 25.1239 39.5412 25.0193 39.5412 25.0193C39.7837 24.8792 40.0285 25.3152 40.0285 25.3152C40.5846 26.0116 40.6091 26.4387 40.549 26.7235C40.5112 26.9059 40.3933 27.2285 40.6002 27.4354C40.9295 27.7646 41.1342 27.3842 41.2409 27.333C41.3477 27.2797 41.4167 27.1395 41.5947 27.3686C41.7704 27.5978 41.657 27.8692 41.657 27.8692C41.3655 28.2652 41.2365 27.9048 40.8805 27.8536C40.2888 27.7669 40.618 28.2318 40.2732 28.6367C40.0641 28.8792 39.8905 28.3409 39.6302 28.5856C39.4834 28.7235 39.1096 29.055 39.806 29.7224C40.1041 30.0072 40.5112 30.0316 40.8138 29.7157C41.2498 29.2574 41.3766 29.4688 41.8906 29.9582C42.2554 30.3053 41.9084 30.8281 41.6636 30.6879C41.5457 30.6212 41.4211 30.4788 41.1075 30.5834C40.3777 30.8259 40.0974 30.2474 39.9906 30.1429C39.8839 30.0383 39.3544 29.56 39.2476 30.0628C39.1408 30.5634 39.6725 30.9082 39.8038 30.9082C39.935 30.9082 40.1175 30.7525 40.2888 30.9482C40.4289 31.1106 40.3243 31.2441 40.133 31.5222C39.9395 31.8048 40.1508 32.3565 40.598 31.936C40.727 31.8136 40.9428 31.7514 40.9695 31.936C40.9962 32.1207 41.0808 32.1718 40.549 32.3053C40.1619 32.401 39.8549 32.7547 39.7148 32.9394H45.8305V24.214H39.3366L48.082 8.78772V19.8713C48.1576 19.7779 48.6426 19.2306 48.9986 19.3107C49.3656 19.393 49.4346 19.4063 49.5169 19.2973C49.5992 19.1883 49.5703 19.0126 49.3812 18.8235C49.1899 18.6344 49.7461 18.4319 49.6993 18.185C49.5191 17.2395 50.5225 18.0248 50.4869 18.5076C50.4602 18.8724 50.6471 18.9725 50.7917 19.0081C50.9496 19.0482 51.4524 19.0615 50.9875 19.6511C50.7984 19.8913 50.9496 20.1516 51.1254 20.2339C51.3034 20.3163 51.7105 20.4787 51.9441 20.0849C52.1755 19.6911 52.4068 19.5688 52.5715 19.5554C52.7361 19.5421 52.9119 19.5688 52.9675 19.8135C53.0209 20.0582 53.3346 20.1116 53.3346 20.1116C53.3346 20.1116 53.7973 20.2606 53.5659 20.7901C53.3346 21.3196 52.7294 20.7367 52.7294 20.7367C52.7294 20.7367 52.5359 20.5165 52.3468 20.472C52.2622 20.452 52.0709 20.3964 51.8929 20.5588C51.715 20.7212 51.6438 21.4108 51.6994 21.6689C51.755 21.927 51.7706 22.1472 51.3879 22.2696C51.0053 22.3919 50.9029 22.1761 50.765 22.096C50.6293 22.0137 50.5892 22.2807 50.409 22.2696C50.1821 22.2562 50.0798 22.2495 49.9396 22.2295C49.8484 22.2162 49.6126 22.1739 49.4769 22.3897C49.3412 22.6077 49.5325 22.779 49.5325 22.779C49.5325 22.779 49.8417 23.2596 49.3968 23.2396C49.003 23.2218 48.9852 23.8113 48.9852 23.8113C48.9852 23.8113 48.9719 24.105 49.1142 24.2985C49.1832 24.392 49.1832 24.5299 49.1832 24.5299C49.1832 24.5299 49.2544 24.9237 49.5748 24.8858C49.7772 24.8614 49.7772 25.1884 49.7238 25.4465C49.7038 25.5466 48.1509 24.0227 48.082 23.9537V24.2162V39.9984H49.7149C49.7194 39.994 49.9619 39.7804 49.924 39.5513C49.924 39.5513 49.8974 39.4022 49.7928 39.3488C49.6882 39.2954 49.7527 39.1174 49.9107 39.0774C50.0687 39.0373 50.1332 39.0373 50.1977 39.1174C50.2622 39.1997 50.4469 39.2264 50.6827 39.0507C50.9185 38.8749 51.1921 38.9283 51.1921 38.9283C51.1921 38.9283 51.5726 38.955 51.5459 38.6569C51.5192 38.3588 51.2789 38.212 51.5081 38.0874C51.7127 37.9761 51.9374 38.0562 52.0042 38.1363C52.0687 38.2186 52.1354 38.2898 52.3067 38.2765C52.4758 38.2631 52.5159 38.3299 52.4513 38.4945C52.3868 38.6569 52.0843 38.7526 51.7839 38.9283C51.4836 39.1041 51.3523 39.4578 51.2344 39.9984H51.993C51.993 39.9895 52.0331 39.2376 52.3334 39.024C52.6338 38.806 52.7139 38.9839 52.7517 39.024C52.7917 39.064 52.9208 39.2264 53.1054 39.173C53.2878 39.1197 53.3145 38.955 53.3679 38.8749C53.4213 38.7926 53.7172 38.1586 54.4158 38.2787C55.1655 38.4055 54.9786 38.6302 54.9786 38.6302C54.9786 38.6302 54.8807 38.777 54.685 38.6569C54.4892 38.5345 54.3424 38.5701 54.2378 38.6391C54.1332 38.7059 54.0932 38.9328 53.9642 38.9617C53.8329 38.9884 53.7217 39.0396 53.7083 39.2287C53.695 39.4178 53.7617 39.7448 53.9842 39.7982C53.9842 39.7982 54.2511 39.6113 54.725 40.0006H54.7272C54.9586 39.5535 55.3991 39.2821 55.8173 39.1753C56.2356 39.0663 56.6294 39.2242 56.6294 39.2242V38.7548C56.4603 38.7948 56.2378 38.6591 56.1577 38.6057C56.0799 38.5523 56.0398 38.47 56.1711 38.2542C56.3023 38.0362 56.6294 37.8872 56.6294 37.8872V36.1519C56.5382 36.1519 56.5115 36.0851 56.4202 36.2186C56.329 36.3521 56.2245 36.5568 56.1066 36.599C55.9887 36.6391 55.9375 36.5167 55.9108 36.45C55.8841 36.3832 55.8574 36.3966 55.7929 36.3009C55.7284 36.2053 55.4636 36.1318 55.3613 36.2342C55.2278 36.3654 55.2545 36.6391 55.0832 36.4433C54.9119 36.2475 54.9631 36.1741 54.9453 35.8894C54.9275 35.6024 55.1766 35.7336 55.1766 35.7336C55.6082 35.896 55.9419 35.718 56.0598 35.569C56.1778 35.4199 56.1444 35.3131 56.2756 35.015C56.4069 34.7169 56.6294 34.708 56.6294 34.708H56.636V32.9483H58.4069C58.487 32.7013 58.7874 32.9705 58.8608 32.8615C58.9342 32.7525 58.7162 32.6902 58.6605 32.5634C58.6049 32.4366 58.5738 32.3832 58.4603 32.2564C58.3869 32.1741 58.3001 31.9271 58.467 31.8982C58.6628 31.8626 58.7829 31.9494 59.1455 32.2208C59.5082 32.4922 59.6216 32.4744 59.8597 32.5478C60.0955 32.619 60.2401 32.8326 60.3135 32.9505H60.5293V24.2718H56.6338V24.2607ZM31.8281 27.1373C31.8103 27.2574 31.8971 27.2396 31.9838 27.4977C32.0105 27.5778 31.9549 27.7602 31.8459 27.6534C31.7369 27.5444 31.4499 27.4821 31.4677 27.7224C31.4744 27.8225 31.6234 28.2897 31.1918 28.0316C31.0828 27.9671 30.9805 27.7958 30.9694 27.6178C30.9516 27.3597 31.1251 27.2396 31.1251 27.2396C31.4099 26.9815 31.4299 26.9259 31.3698 26.719C31.312 26.5121 31.4455 26.4209 31.6034 26.461C31.7614 26.5032 31.8793 25.8981 32.0706 26.4988C32.2753 27.1551 31.8771 26.7969 31.8281 27.1373ZM33.599 28.2652C33.4188 28.3253 33.3276 28.194 33.2764 28.134C33.1118 27.9448 33.2386 27.7268 33.2386 27.7268C33.3943 27.6312 33.4967 27.7024 33.5745 27.7758C33.6524 27.8447 33.7814 28.2051 33.599 28.2652ZM33.7258 22.0716C33.7102 22.214 33.5367 22.1984 33.441 22.1494C33.3454 22.1027 33.1251 22.2273 33.0606 22.1962C32.9983 22.165 32.7447 22.2273 32.7914 21.8825C32.8381 21.5354 32.8226 21.5999 32.7291 21.4731C32.6335 21.3463 32.649 21.2062 32.7759 21.1416C32.9027 21.0793 32.9494 21.1728 33.0606 21.1728C33.0606 21.1728 33.8037 21.3463 33.7881 21.6444C33.7748 21.9448 33.7414 21.9292 33.7258 22.0716ZM34.5668 26.7813C34.4711 26.8236 34.3065 26.8303 34.1507 26.6056C33.9972 26.3809 34.1018 26.263 34.1018 26.263C34.1797 26.2051 34.2464 26.2296 34.4978 26.3875C34.7514 26.5477 34.6646 26.739 34.5668 26.7813ZM38.1085 23.8647C37.9528 23.907 37.9283 24.1205 38.0129 24.2051C38.0974 24.2896 38.1463 24.2896 38.1463 24.3853C38.1463 24.4809 37.9661 24.5032 37.9661 24.5032C37.9661 24.5032 37.8571 24.5877 37.6525 24.3119C37.4478 24.0338 37.2542 24.1739 37.2542 24.1739C37.2542 24.1739 37.0251 24.2696 36.6402 24.0138C36.2553 23.7579 36.4467 22.9904 36.4467 22.9904C36.4822 22.8836 36.5801 22.9058 36.6402 23.0215C36.7003 23.1394 36.7492 23.1928 37.1474 23.5332C37.5457 23.8736 37.955 23.5866 38.0996 23.5644C38.2442 23.5421 38.5935 23.5421 38.569 23.6934C38.5423 23.8425 38.2665 23.8224 38.1085 23.8647ZM42.558 32.1896C42.5313 32.3409 42.42 32.4366 42.2688 32.381C42.1175 32.3253 41.9929 32.1474 42.0062 32.0806C42.0196 32.0116 41.9795 31.8337 41.8683 31.7514C41.7571 31.669 41.8127 31.5311 41.8127 31.5311C41.9084 31.4354 42.0463 31.5044 42.3355 31.6401C42.6247 31.7758 42.5869 32.0383 42.558 32.1896ZM42.7671 29.8181C42.6559 29.887 42.5046 29.9404 42.34 29.6801C42.1753 29.4198 42.3266 29.2552 42.3266 29.2552C42.3266 29.2552 42.4779 29.1595 42.6714 29.3242C42.8628 29.4888 42.8783 29.7491 42.7671 29.8181ZM43.8594 30.4744C43.9039 30.3987 43.9907 30.3364 44.0552 30.461C44.1197 30.5856 44.2176 30.8147 44.142 30.9416C44.0663 31.0684 43.9462 31.055 43.8372 30.8904C43.7282 30.728 43.8594 30.4744 43.8594 30.4744ZM42.3466 26.5099C42.509 26.4921 42.6714 26.3364 42.6714 26.3364C42.6714 26.3364 42.7248 26.2474 42.8294 26.105C42.8939 26.0182 43.0875 26.125 43.0875 26.125C43.2699 26.2719 42.9762 26.4743 42.885 26.5633C42.7938 26.6545 42.6648 26.828 42.6269 26.9237C42.5869 27.0171 42.2354 27.204 42.0285 26.9348C41.806 26.6478 42.3466 26.5099 42.3466 26.5099ZM51.0386 17.4174C51.0119 17.4553 50.9007 17.5776 50.8673 17.7178C50.8673 17.7178 50.8095 17.7912 50.7806 17.7C50.7717 17.6711 50.7628 17.6822 50.7539 17.5776C50.7494 17.5354 50.7806 17.4174 50.5981 17.2194C50.4179 17.0214 50.2533 16.8056 50.3312 16.5609C50.409 16.3162 50.5381 16.4096 50.5381 16.4096C50.5381 16.4096 50.6248 16.4853 50.7183 16.4853C50.8139 16.4853 50.8651 16.5698 50.9341 16.6744C51.003 16.7789 51.2567 17.0993 51.0386 17.4174ZM51.6883 18.5543C51.6015 18.6944 51.5214 18.6099 51.5214 18.6099C51.5214 18.6099 51.4947 18.5298 51.3879 18.4364C51.2166 18.2851 51.3256 18.0537 51.3256 18.0537C51.3256 18.0537 51.3568 17.8735 51.5614 18.0226C51.7661 18.1716 51.7728 18.4119 51.6883 18.5543ZM52.1376 27.1729C52.2511 27.0883 52.4291 27.1262 52.4669 27.3887C52.5047 27.6512 52.3156 27.5577 52.3156 27.5577C52.2778 27.4554 52.1844 27.5021 52.1844 27.5021C52.1844 27.5021 52.0909 27.5778 52.0442 27.4376C51.9975 27.2952 52.1376 27.1729 52.1376 27.1729ZM51.8573 28.194C51.9263 28.2897 52.0064 28.2897 51.8173 28.4098C51.626 28.5322 51.4636 28.3431 51.4636 28.3431C51.4636 28.3431 51.1632 27.9493 51.4636 27.8425C51.7639 27.7335 51.8039 27.9382 51.8039 27.9382C51.8039 27.9382 51.8039 27.9382 51.8039 28.0049C51.8017 28.0739 51.8573 28.194 51.8573 28.194ZM50.7605 23.0994C50.7605 23.0994 50.8518 22.8636 50.9452 23.0082C51.0453 23.1639 51.3123 23.3352 51.5614 23.4909C51.8106 23.6467 51.7328 23.5955 51.7461 23.818C51.7594 24.0405 51.7061 23.8958 51.6549 24.0783C51.6015 24.2607 51.4458 24.105 51.4458 24.105C51.4458 24.105 51.3924 24.0138 51.1298 23.9604C50.8673 23.9092 50.8162 23.8158 50.8162 23.8158C50.498 23.5688 50.7605 23.0994 50.7605 23.0994ZM50.3445 25.4287C50.3445 25.4287 50.4224 25.3441 50.6782 25.6845C50.9341 26.0249 50.7583 26.1695 50.7583 26.1695C50.7583 26.1695 50.5425 26.2652 50.3245 25.9159C50.1043 25.5688 50.3445 25.4287 50.3445 25.4287ZM49.8039 34.3899C49.7661 34.3076 49.528 34.1852 49.4146 34.1029C49.3011 34.0206 49.2144 33.8293 49.2255 33.6402C49.2388 33.4488 49.4391 33.5311 49.4391 33.5311C49.8529 33.7358 49.9663 34.1986 49.9663 34.1986C50.0041 34.4855 49.8417 34.4722 49.8039 34.3899ZM50.3623 28.0249C49.9752 27.9515 49.8618 27.7557 49.8306 27.6823C49.7995 27.6089 49.7794 27.5689 49.6949 27.4332C49.6104 27.2975 49.4969 27.2151 49.5592 27.1328C49.6215 27.0505 49.7883 27.1439 49.7883 27.1439C49.7883 27.1439 49.8929 27.2374 50.1843 27.4131C50.4758 27.5889 51.0831 28.2652 51.0831 28.2652C51.0831 28.2652 50.7494 28.0984 50.3623 28.0249ZM50.6582 29.3687C50.6582 29.3687 50.5403 29.3575 50.5403 29.2307C50.5403 29.1039 50.8095 29.0706 50.8095 29.0706C50.8629 29.0594 50.9808 28.986 50.9808 28.986C50.9808 28.986 51.2277 28.9438 51.3234 29.0928C51.4191 29.2419 51.3234 29.4977 51.1298 29.6267C50.9363 29.7558 50.7761 29.6801 50.7761 29.6045C50.7761 29.5289 50.6582 29.3687 50.6582 29.3687ZM51.0231 34.1162C50.8896 34.1407 50.7338 34.0451 50.7338 33.8648C50.7338 33.6846 50.9141 33.7202 50.9141 33.7202C50.9141 33.7202 51.0342 33.7314 51.1321 33.8404C51.23 33.9494 51.1565 34.0918 51.0231 34.1162ZM51.0008 35.3999C50.9674 35.3243 50.9452 35.2798 50.8584 35.1396C50.7717 34.9995 50.6515 34.9105 50.716 34.8237C50.7806 34.7369 50.9563 34.8348 50.9563 34.8348C50.9563 34.8348 51.0653 34.9327 51.3723 35.1174C51.6794 35.302 52.3112 36.0073 52.3112 36.0073C52.3112 36.0073 51.9619 35.8337 51.557 35.7581C51.1543 35.6824 51.0342 35.4778 51.0008 35.3999ZM52.2111 37.0729C52.0442 37.1841 51.9063 37.1196 51.9063 37.0551C51.9063 36.9906 51.8039 36.8527 51.8039 36.8527C51.8039 36.8527 51.7016 36.8438 51.7016 36.7325C51.7016 36.6213 51.933 36.5946 51.933 36.5946C51.9797 36.5857 52.082 36.5212 52.082 36.5212C52.082 36.5212 52.2956 36.4834 52.3779 36.6124C52.4625 36.7436 52.3779 36.9639 52.2111 37.0729ZM52.4402 29.9894C52.349 30.2074 52.1866 30.243 51.9686 30.134C51.7505 30.025 51.7327 29.8626 51.8039 29.7536C51.8774 29.6445 52.349 29.7002 52.349 29.7002C52.4602 29.8092 52.5314 29.7736 52.4402 29.9894ZM52.4602 29.322C52.2778 29.3931 52.2422 29.322 52.0776 29.124C51.913 28.926 52.1132 28.7813 52.1132 28.7813C52.2956 28.7079 52.2578 28.8347 52.3668 28.9438C52.478 29.0505 52.6404 29.2485 52.4602 29.322ZM53.8907 26.7457C54.0554 26.6234 54.2178 26.7991 54.2178 26.7991C54.2178 26.7991 54.4358 27.0572 54.2044 27.1929C53.973 27.3286 53.8218 27.2752 53.755 27.1395C53.6861 27.0038 53.8907 26.7457 53.8907 26.7457ZM53.339 37.3888C53.2611 37.5757 53.121 37.6068 52.9319 37.5134C52.745 37.42 52.7294 37.2798 52.7917 37.1864C52.854 37.0929 53.2611 37.1396 53.2611 37.1396C53.3546 37.2331 53.4191 37.2019 53.339 37.3888ZM54.8807 37.3732C54.7272 37.5712 54.3869 37.5379 54.2934 37.5134C54.2 37.4889 53.9642 37.2798 54.0109 37.104C54.0576 36.9283 53.9174 36.7414 53.9174 36.7414C53.9174 36.7414 53.7639 36.6235 53.7995 36.5301C53.8351 36.4366 53.9864 36.4722 53.9864 36.4722C54.6093 36.6013 54.854 36.9973 54.854 36.9973C54.9408 37.1396 55.0342 37.1752 54.8807 37.3732ZM53.973 34.688C54.1132 34.5834 54.2556 34.7347 54.2556 34.7347C54.2556 34.7347 54.4425 34.9572 54.2445 35.0729C54.0442 35.1886 53.9152 35.1418 53.8574 35.0262C53.7973 34.9105 53.973 34.688 53.973 34.688ZM55.6772 34.3988C55.606 34.4878 55.5504 34.5412 55.4436 34.579C55.3346 34.6146 55.1922 34.5256 55.21 34.3632C55.2278 34.2008 55.101 33.9872 54.9942 33.8982C54.8852 33.8092 54.8674 33.629 55.012 33.5222C55.1566 33.4155 55.6794 33.4688 55.8596 33.7736C56.0376 34.0762 55.6772 34.3988 55.6772 34.3988ZM57.3747 30.5567C57.3747 30.5567 57.2434 30.659 56.8251 30.3898C56.8251 30.3898 56.3046 29.8826 55.9575 30.0428C55.9575 30.0428 55.7595 30.1696 55.5637 30.3654C55.4391 30.4899 55.2055 30.57 55.0454 30.3654C54.9386 30.2296 54.814 30.2764 54.814 30.2764C54.814 30.2764 54.725 30.3209 54.6004 30.4543C54.5915 30.4632 54.3869 30.6234 54.1332 30.332C54.0643 30.2519 54.0287 30.1785 54.0131 30.1162C53.8329 30.1762 53.6238 30.154 53.5481 30.1362C53.4413 30.1095 53.1855 29.8804 53.2189 29.6801C53.0698 29.6379 52.9319 29.4666 52.9319 29.4666C52.9319 29.4666 52.8006 29.362 52.8585 29.2285C52.8896 29.1529 52.9386 29.1195 52.9897 29.1039C52.9719 29.0683 52.9608 29.0327 52.9741 28.9971C53.0142 28.8881 53.1922 28.9304 53.1922 28.9304C53.9152 29.0795 54.2 29.54 54.2 29.54C54.2489 29.6223 54.3001 29.6735 54.3157 29.7313C54.4514 29.7002 54.6894 29.6735 54.9542 29.7936C55.4013 29.996 55.5237 29.9783 55.7684 29.8025C56.0109 29.629 56.0776 29.4532 56.111 29.3264C56.1444 29.1996 56.1666 29.1484 56.3046 29.164C56.4825 29.184 56.5715 29.3976 56.5893 29.4977C56.5893 29.4977 56.7406 30.0606 57.2412 30.3542C57.2456 30.3542 57.5215 30.5166 57.3747 30.5567ZM57.408 27.7246C57.1945 27.8247 57.1522 27.8381 57.0943 27.9226C57.0365 28.0071 56.7807 28.1362 56.6672 27.9515C56.5537 27.7669 56.4959 27.4265 56.8096 27.4977C56.8652 27.511 56.9386 27.4843 57.0098 27.3709C57.081 27.2574 57.2946 27.1573 57.3947 27.2997C57.4948 27.4398 57.6216 27.6245 57.408 27.7246Z" fill="white"/>
<path d="M93.8955 14.6854C93.7776 14.4807 93.6486 14.0492 93.3661 13.3862C93.059 12.6676 92.7876 13.0614 92.7876 13.0614C92.7876 13.0614 92.118 13.5286 92.1736 12.0536C92.227 10.5786 91.7576 9.33718 91.7398 9.21259C91.722 9.08579 91.5774 9.1592 91.4328 9.26599C91.2882 9.375 90.9834 9.31271 90.93 9.17033C90.8766 9.02572 90.712 8.79212 90.5673 8.72093C90.4227 8.64974 89.7175 8.44951 89.7131 8.7276C89.7086 8.94785 89.7442 9.10581 90.376 9.42839C91.0078 9.7532 91.0501 10.1848 90.9055 10.365C90.7609 10.5452 90.7609 10.5452 90.7787 10.9412C90.7965 11.3372 90.5429 11.4262 90.2715 11.4818C90 11.5352 89.9288 11.662 89.8554 11.86C89.782 12.058 89.6307 12.3828 89.4839 12.3917C89.3415 12.4006 89.257 12.345 88.9856 11.9312C88.7141 11.5174 88.2625 11.6064 88.0823 11.553C87.9021 11.4996 87.6841 11.2482 87.6663 10.9412C87.6485 10.6364 87.5261 10.7321 87.3593 10.7254C87.1902 10.7187 87.1057 10.6898 86.9967 10.5452C86.8876 10.4006 86.9611 9.91561 87.1057 9.82662C87.2503 9.73763 87.4127 9.52183 87.4861 9.37722C87.5595 9.23262 87.6841 9.21482 87.9199 9.34163C88.1557 9.46844 88.2269 9.37722 88.2625 9.14363C88.2981 8.91003 88.4806 8.74763 88.4806 8.74763C88.7342 8.36942 88.5896 7.86664 88.4272 7.63304C88.2648 7.39944 88.1135 7.38387 88.1023 7.48843C88.0845 7.64861 87.9555 7.74205 87.8131 7.75095C87.4149 7.75095 87.3192 7.89111 87.1791 8.11803C87.0389 8.34495 86.8899 8.91226 86.7631 9.03907C86.3715 9.43062 85.6062 8.66531 85.5706 8.57632C85.5706 8.57632 85.3659 8.30046 85.7486 7.9356C86.1401 7.56185 85.7842 7.24149 85.7842 7.24149C85.7842 7.24149 85.5706 7.08131 85.8198 6.81434C86.0044 6.61634 85.6952 6.316 85.5528 6.26261C85.1991 6.12912 85.0723 5.5329 85.0723 5.5329C85.0723 5.5329 85.0055 4.87215 85.4594 4.6964C85.782 4.57181 85.8754 4.82321 85.8754 5.0924C85.8754 5.36159 86.02 5.6864 86.02 5.6864C86.327 6.3516 86.941 6.5496 87.1769 6.514C87.4127 6.47841 87.6285 6.46061 87.9177 6.712C88.2069 6.9634 88.574 7.29488 88.6274 7.18809C88.6808 7.07908 88.7253 7.03681 88.5095 6.5318C88.2915 6.02901 88.1112 6.3338 88.1112 6.3338C88.1112 6.3338 87.9844 6.4962 87.822 6.2804C87.6596 6.06461 87.6418 5.99341 87.7308 5.9022C87.822 5.81321 87.9333 5.6775 87.8799 5.55069C87.8265 5.42388 87.7709 5.326 87.5729 5.0568C87.3749 4.78761 87.139 4.9122 86.9944 5.02121C86.8498 5.13022 86.6874 5.14802 86.5428 5.02121C86.3982 4.8944 86.2892 4.76981 86.1802 4.58961C86.0712 4.40941 86.1802 4.28482 86.3248 4.30262C86.4694 4.32042 86.7408 4.30262 86.7942 4.21363C86.8476 4.12464 86.7942 3.88882 86.5762 3.56624C86.3582 3.24143 86.1068 3.26145 85.7085 3.20583C85.3103 3.15244 85.2992 3.06345 85.2102 2.92107C85.119 2.77646 84.9744 2.77646 84.9388 2.90327C84.9032 3.03008 84.8654 3.04788 84.7586 3.04788C84.5873 3.04565 84.4449 2.81206 84.4071 2.54286C84.3715 2.27367 84.0889 1.89102 84.0889 1.89102C84.0044 1.57733 83.5239 1.29257 83.0411 1.08122C81.219 0.360406 79.2346 0 77.0966 0H73.9397V8.62304H77.0121C79.2457 8.62304 81.0856 9.68424 82.5316 11.8066C83.7975 13.6643 84.5094 15.998 84.6674 18.8101C84.6696 18.8123 84.6696 18.8145 84.6718 18.8145L85.5751 19.9736C85.5751 19.9736 86.0178 20.1894 86.1268 19.9202C86.4116 19.2083 86.9232 19.562 87.1413 19.849C87.3593 20.136 87.5662 19.8223 87.5284 19.5353C87.4928 19.2483 87.5195 19.0526 87.1947 18.8012C86.8699 18.5498 86.5473 18.0181 87.0167 18.1249C87.4861 18.2339 87.6018 18.4207 87.7464 18.0959C87.891 17.7711 87.9644 17.8801 88.1802 17.9513C88.3982 18.0225 88.5428 18.2761 88.2514 18.5987C87.9622 18.9235 88.1068 18.9947 88.2514 19.1749C88.396 19.3551 88.4694 19.4997 88.287 19.6421C88.1068 19.7867 88.2136 20.0025 88.4672 20.0381C88.7208 20.0737 88.8654 20.2539 88.5762 20.5787C88.287 20.9035 88.2136 21.3351 88.6496 21.6933C89.0835 22.0537 89.4083 22.3763 89.1925 23.3841C89.1925 23.3841 89.0612 22.9436 88.5962 22.7367C88.3293 22.6188 88.6007 22.2717 88.5473 22.0537C88.4939 21.8379 88.1379 21.4174 87.6396 21.68C87.2436 21.8891 86.9611 21.8357 86.9989 21.4308C87.0523 20.8613 88.4049 20.6833 87.2481 20.4163C86.6785 20.2851 86.2647 20.4786 86.02 20.6121C85.9221 20.6655 85.8687 20.7856 85.911 20.8991C85.9666 21.0548 85.713 21.1928 85.4683 20.8969C85.4683 20.8969 85.3615 20.3629 84.852 20.819L84.6807 20.9525C84.5584 23.9025 83.8442 26.3452 82.5316 28.2718C81.0856 30.3942 79.2457 31.4554 77.0121 31.4554H73.7262H71.6994V0H64.8784L64.8718 0.12236C64.7093 0.24472 64.7983 0.269192 64.7449 0.449395C64.6915 0.629598 64.5736 0.645171 64.4646 0.511687C64.3979 0.431597 64.2511 0.391552 64.1843 0.4049C64.0419 0.433822 63.9997 0.616249 64.0575 0.767531C64.1977 1.12571 64.0041 1.13239 64.0041 1.13239C64.0041 1.13239 63.5658 1.36153 63.9841 1.63295C64.2377 1.79758 64.4112 2.0601 64.171 2.24697C63.9796 2.39603 63.9307 2.56734 63.9307 2.56734C63.7349 3.13687 63.8929 3.67525 64.0375 3.92887C64.1821 4.18026 63.904 4.5162 63.9574 4.97004C63.9952 5.29263 64.4335 5.43278 64.1843 5.83101C63.637 6.70533 63.4235 7.63971 63.4235 7.63971C62.7026 7.18587 63.637 6.49175 63.5325 6.01121C63.4791 5.76204 63.6059 5.39941 63.4613 5.18361C63.3167 4.96782 62.954 4.96782 62.7738 5.29263C62.5936 5.61744 62.3912 5.68863 62.3912 5.68863V7.37942C62.3912 7.37942 62.7026 7.77542 62.8472 7.95562C62.9919 8.13583 62.9919 8.35163 63.0274 8.67421C63.063 8.99902 63.8239 9.68201 63.8239 9.68201C64.3845 10.1203 64.1042 10.5474 63.9974 10.8678C63.884 11.2059 63.4902 11.1615 63.3523 11.0124C63.092 10.7299 63.2166 10.4918 63.0364 10.2404C62.8561 9.98902 62.3912 9.8244 62.3912 9.8244L62.3066 9.82884V39.9828H77.0966C82.0266 39.9828 86.149 38.0695 89.4639 34.243C89.7976 33.8581 90.1091 33.4621 90.4072 33.0594C90.2403 32.788 89.8043 31.936 90.2136 31.0438C90.6052 30.1895 90.2848 30.1517 90.1647 29.7001C90.1647 29.7001 90.0067 29.3842 90.2448 29.1484C90.4828 28.9126 90.7186 28.5588 90.7186 28.2029C90.7186 28.2029 90.6007 27.5733 90.8165 27.4754C90.8165 27.4754 91.1569 27.1105 91.6708 27.1305C92.1847 27.1506 92.5741 27.2462 92.6675 27.4865C92.7543 27.709 92.6274 28.0427 92.6119 28.3675C92.5985 28.6923 92.7164 28.9215 92.7164 28.9215C92.7899 28.7257 92.8655 28.5788 92.9434 28.4721C93.9356 25.9225 94.4339 23.0971 94.4339 19.9936C94.4384 18.1204 94.2537 16.354 93.8955 14.6854ZM84.4271 7.24594C84.1557 7.39054 83.7575 6.97674 83.7575 6.97674C83.4504 6.70755 83.6662 6.50955 83.6662 6.50955C83.9733 6.43836 84.3181 6.72535 84.3181 6.72535C84.7163 7.08576 84.4271 7.24594 84.4271 7.24594ZM86.4538 17.1704C86.4538 17.1704 86.2047 17.2461 86.1179 16.7811C86.0311 16.3161 85.9889 16.2872 85.9132 16.1804C85.8376 16.0759 85.7397 15.8801 85.8042 15.7911C85.8042 15.7911 85.8687 15.7755 85.9555 15.8067C85.9555 15.8067 86.2914 15.9713 86.5384 16.8857C86.5406 16.8857 86.5962 17.1259 86.4538 17.1704ZM64.7093 9.01459C64.5625 8.83217 64.7449 8.79657 64.3423 8.57632C63.9396 8.3583 63.9396 7.59077 63.9396 7.59077C63.9752 6.93447 64.894 7.59077 64.894 7.59077C65.4435 7.84661 65.6282 8.5385 65.4079 8.97677C65.1854 9.41727 64.8562 9.19702 64.7093 9.01459ZM65.8595 10.6253C65.3834 10.8077 65.1988 10.4785 65.1988 10.4785C65.0164 10.0046 65.3078 9.82217 65.3078 9.82217C65.7105 9.63974 65.8573 9.969 65.8573 9.969C66.1888 10.296 65.8595 10.6253 65.8595 10.6253ZM66.4469 8.90113C66.3178 9.03017 66.1665 8.90113 66.1665 8.90113C65.9507 8.64306 66.1443 8.46954 66.1443 8.46954C66.2533 8.31825 66.4246 8.5563 66.4246 8.5563C66.5336 8.68533 66.4469 8.90113 66.4469 8.90113ZM66.8362 10.9546C66.7539 10.7388 66.5114 10.2538 66.5114 10.2538C66.4847 9.90226 67.0876 10.0758 67.0876 10.0758C67.6304 10.454 67.6749 10.9301 67.6749 10.9301C67.7572 11.3083 68.0042 12.1426 68.0042 12.1426C67.3523 11.8444 66.9185 11.1704 66.8362 10.9546ZM65.1165 7.33938C65.0075 7.25261 64.8962 7.18587 64.8962 7.18587C64.6115 7.05461 64.7205 6.83659 64.7205 6.83659C64.7205 6.61856 64.567 6.50955 64.567 6.50955C64.5447 6.37829 64.5447 6.09353 64.8517 6.26928C65.1587 6.44503 65.577 6.88108 65.5325 7.21034C65.4902 7.53738 65.2277 7.42836 65.1165 7.33938ZM76.7651 3.92887C76.5671 4.16246 76.4025 4.03788 76.4025 3.94667C76.4025 3.85768 76.4381 3.85768 76.2935 3.65968C76.1489 3.46168 76.1489 3.33487 76.1489 3.33487C76.2579 3.06567 76.4203 3.24588 76.5827 3.31707C76.7473 3.38826 76.9631 3.69527 76.7651 3.92887ZM79.7352 7.43504C79.664 7.56185 79.4815 7.52403 79.3925 7.47063C79.3013 7.41724 79.3236 7.27263 79.2034 7.17919C79.1389 7.13025 78.9365 7.08576 78.7051 7.12803C78.4893 7.16807 78.5316 6.81434 78.4937 6.65193C78.4582 6.48953 78.2846 6.07795 77.8152 6.00454C77.3458 5.93112 77.1878 5.67083 77.1878 5.67083C77.1344 5.56404 77.1077 5.44391 77.1923 5.32822C77.2657 5.22811 77.437 5.21921 77.546 5.29263C77.655 5.36382 77.6728 5.36382 77.9442 5.40164C78.2157 5.43723 78.2869 5.49063 78.3603 5.83323C78.4315 6.17584 78.3781 6.08463 78.9743 6.01344C79.5705 5.94225 79.1389 6.27151 79.1211 6.41834C79.0944 6.64526 79.308 6.77874 79.5883 6.93003C79.7752 7.03236 79.8086 7.31045 79.7352 7.43504ZM82.2647 8.32938C82.1912 8.35385 82.0533 8.38277 81.8442 8.29156C81.6328 8.20034 81.6729 7.9267 81.644 7.78877C81.615 7.65306 81.5127 7.5396 81.2235 7.50623C80.9343 7.47286 80.8364 7.13248 80.8364 7.13248C80.8119 6.91223 81.0121 6.97674 81.179 6.98564C81.3459 6.99454 81.3414 6.83436 81.595 6.81434C81.8486 6.79432 81.7752 7.11023 81.8108 7.26151C81.8442 7.41279 81.8642 7.51958 81.9532 7.68643C82.0422 7.85106 82.1401 7.94895 82.3247 8.06464C82.5094 8.18255 82.3381 8.30491 82.2647 8.32938ZM86.2269 21.9091C86.6429 21.8379 86.8409 21.9625 86.8409 22.2139C86.8409 22.4653 86.9677 22.7167 87.0767 22.9147C87.1858 23.1127 87.1858 23.2195 87.0412 23.2395C86.8965 23.2573 86.8053 23.0593 86.6785 22.8969C86.5517 22.7345 86.4983 22.7167 86.1913 22.6811C85.8843 22.6455 85.8665 22.4653 85.8487 22.3763C85.7753 22.0137 86.2269 21.9091 86.2269 21.9091ZM68.725 12.8856C69.4525 13.0703 69.3924 13.4396 69.3724 13.5975C69.3523 13.7555 69.1499 14.0736 68.705 13.8089C68.26 13.5441 68.28 12.9902 68.28 12.9902C68.3623 12.5942 68.725 12.8856 68.725 12.8856ZM68.5982 4.17804C68.7272 4.32487 68.6471 4.42943 68.5159 4.39829C68.4491 4.38271 68.3824 4.29595 68.2266 4.13354C68.0709 3.97114 68.0665 4.20473 67.7995 4.22253C67.7261 4.22698 67.6838 4.049 67.5859 3.99116C67.488 3.93332 67.4257 4.0757 67.3901 4.13354C67.3545 4.19139 67.3634 4.33154 67.0342 4.29372C66.7294 4.25813 66.1243 3.53509 65.8751 3.23698C65.6726 2.99448 65.5592 2.76979 65.6771 2.73419C65.7928 2.70082 65.8907 2.74976 65.9641 2.78981C66.1665 2.90327 66.2756 2.97446 66.5091 2.95221C66.7405 2.92997 66.7539 3.0857 66.9318 3.2481C67.112 3.41051 67.2277 3.30594 67.2567 3.21918C67.2856 3.13242 67.3034 3.09904 67.3501 3.07457C67.3968 3.05233 67.4391 3.0768 67.4725 3.12574C67.557 3.25255 67.6883 3.34154 67.6883 3.34154C67.9886 3.47057 68.082 3.15466 68.1866 3.13019C68.2912 3.10794 68.4536 3.02563 68.6271 3.24588C68.8006 3.46613 68.5848 3.66635 68.4914 3.82876C68.4002 3.98894 68.5982 4.17804 68.5982 4.17804ZM83.3503 29.3708C83.3837 29.0327 83.684 28.9148 84.02 28.7123C84.3537 28.5099 84.0756 28.1206 84.0756 28.1206C84.0756 28.1206 83.9199 27.8669 83.9977 27.5955C84.0756 27.3241 84.2758 27.3597 84.3537 27.3931C84.4316 27.4264 84.476 27.4776 84.7319 27.749C84.9877 28.0204 85.099 27.749 85.2324 27.7312C85.3659 27.7134 85.4327 27.749 85.3771 27.967C85.3214 28.1873 85.2769 28.254 85.1101 28.3052C84.9432 28.3564 84.921 28.3386 84.8987 28.5255C84.8765 28.7123 84.9099 28.6434 84.8209 28.8124C84.7319 28.9815 84.7653 28.9481 84.7319 29.1328C84.6985 29.3197 84.654 29.3686 84.654 29.3686C84.5205 30.1806 84.8142 30.3653 84.8542 30.3987C85.0545 30.5678 85.3659 30.8214 85.3659 30.8214C85.8887 31.2263 86.347 32.0049 86.2803 32.0205C86.2136 32.0383 86.0801 31.936 85.9132 31.7847C85.7464 31.6334 85.6685 31.7335 85.6018 31.7513C85.535 31.7691 85.4127 31.7691 85.3237 31.6334C85.2347 31.4977 85.1679 31.5155 85.0233 31.4821C84.8787 31.4487 84.7341 31.3798 84.7341 31.3798C84.7341 31.3798 84.367 31.0928 84.2002 30.3831C84.0333 29.6734 83.7775 29.6734 83.6106 29.6734C83.4393 29.6756 83.317 29.709 83.3503 29.3708ZM79.7685 4.04455C79.5661 4.1113 79.4237 4.20028 79.4237 4.20028C79.2635 4.43166 80.0466 4.82321 80.0466 4.82321C78.358 4.73422 78.1623 4.30707 78.5872 4.0401C78.8519 3.87547 78.7185 3.17024 78.249 3.50617C78.1467 3.57959 77.9999 3.81763 77.8753 3.80873C77.6261 3.79094 77.8441 3.59293 77.9109 3.47057C77.9776 3.34821 77.9109 3.18581 77.8753 3.06122C77.8174 2.85433 77.9732 2.70749 78.0177 2.68747C78.249 2.58068 78.1667 3.03008 78.3558 2.93664C78.5449 2.8432 78.6317 2.6274 78.4804 2.4205C78.4226 2.34264 78.3024 2.15354 78.3914 1.93996C78.4604 1.77756 78.6406 1.93996 78.8052 2.0334C79.0633 2.18023 79.2524 1.95331 79.4571 1.89769C79.6595 1.8443 79.7685 1.92439 79.7952 1.99113C79.8219 2.05787 79.9176 2.10014 79.9176 2.10014C80.2424 2.2225 80.1356 2.36933 80.1356 2.36933C80.1356 2.36933 80.0533 2.39603 80.0822 2.55844C80.1089 2.72084 79.9287 2.62073 79.7796 2.57846C79.6306 2.53619 79.3881 2.40048 79.3703 2.66745C79.3525 2.93442 79.5839 3.059 79.8152 3.11239C80.0466 3.16579 80.1756 3.36824 80.2046 3.58404C80.229 3.80206 79.971 3.97781 79.7685 4.04455ZM87.8599 33.4488C87.8599 33.4488 87.7219 33.431 87.6707 33.6023C87.6196 33.7714 87.4461 33.7892 87.3615 33.7892C87.2747 33.7892 87.2236 33.5511 87.1034 33.4844C86.9833 33.4176 86.6719 33.2129 86.4316 33.4666C86.1913 33.7202 86.1268 33.609 85.7998 33.4065C85.4727 33.2041 85.297 33.3398 85.1234 33.4421C84.9521 33.5444 84.7363 33.8381 84.1802 33.6379C83.7641 33.4888 83.9065 33.2663 84.0177 33.1618C84.2691 32.926 84.5873 33.1729 84.7675 33.0683C85.0167 32.926 84.941 32.6523 85.3904 32.8548C85.3904 32.8548 86.0044 33.3042 86.3337 33.0149C86.3337 33.0149 86.4227 32.837 86.2091 32.5856C86.1134 32.4721 86.2002 32.1963 86.4227 32.1629C86.6474 32.1295 86.9833 32.2318 87.2414 32.5366C87.4994 32.8414 87.5395 33.0973 87.8109 32.946C88.1313 32.768 88.3982 32.986 88.3804 33.0706C88.3582 33.1529 88.3404 33.4599 87.8599 33.4488ZM88.5139 32.55C88.3426 32.6523 88.1869 32.4988 88.1869 32.4988C87.98 32.3631 88.0667 32.194 88.0667 32.194C88.1869 32.0583 88.3248 32.194 88.3248 32.194C88.4805 32.2786 88.6875 32.4476 88.5139 32.55ZM89.168 17.5286C88.8899 17.6198 88.7208 17.3907 88.7208 17.3907C88.4383 16.8812 88.7364 16.6855 88.7364 16.6855C88.9522 16.5475 89.2147 16.8701 89.2147 16.8701C89.3215 16.9613 89.4461 17.4374 89.168 17.5286ZM89.2325 13.7154C89.0412 13.5975 89.2058 13.2438 89.2058 13.2438C89.346 12.9323 89.6441 13.0391 89.6441 13.0391C89.782 13.1348 89.7575 13.2616 89.6975 13.3283C89.6352 13.3951 89.6152 13.4218 89.5506 13.5464C89.4861 13.6665 89.4216 13.8334 89.2325 13.7154ZM89.8488 24.5877C89.7664 24.6344 89.5039 24.5632 89.4238 24.1516C89.346 23.7401 89.5818 23.3507 89.5818 23.3507C89.5195 23.6177 89.8799 24.0426 89.8799 24.0426C90.1313 24.3318 90.0023 24.4965 89.8488 24.5877ZM91.3504 13.6865C91.2414 13.5486 91.3037 13.3929 91.3037 13.3929C91.4595 13.2727 91.8666 13.6865 91.8666 13.6865C92.1002 13.929 92.0535 14.1871 91.9133 14.4296C91.7731 14.6721 91.8666 15.0681 91.8822 15.0859C92.0913 15.3172 91.8977 15.5686 91.8977 15.5686C91.6486 15.7066 91.3193 15.1704 91.3193 15.1704C91.1324 14.7722 91.3037 14.2716 91.3037 14.2716C91.5373 13.9468 91.3816 13.7266 91.3504 13.6865ZM91.8555 25.0371C91.8555 25.0371 91.6931 24.8747 91.6063 24.8591C91.5195 24.8435 91.5484 24.7679 91.5707 24.5743C91.5707 24.5743 91.6686 24.3519 91.5173 24.2028C91.5173 24.2028 91.2704 24.0248 91.3104 23.7512C91.3705 23.3552 91.6152 23.6622 91.6152 23.6622C91.6152 23.6622 92.1069 24.0649 92.1158 24.8391C92.1269 25.6111 91.8555 25.0371 91.8555 25.0371ZM92.6986 26.5566C92.6986 26.5566 92.4628 26.7323 92.2848 26.4854C92.1069 26.2384 92.2604 25.9225 92.2604 25.9225C92.4139 25.8402 92.603 26.076 92.603 26.076C92.841 26.3118 92.6986 26.5566 92.6986 26.5566Z" fill="#FFD100"/>
<path d="M91.9558 29.268C91.6199 29.3281 91.3685 29.5884 91.3685 29.8375C91.3685 30.2135 91.1549 30.3359 91.017 30.654C90.5097 31.8242 91.0303 32.1846 91.0303 32.1846C91.6465 31.2369 92.0826 30.4538 92.5631 29.3592C92.5631 29.3592 92.2917 29.2079 91.9558 29.268Z" fill="#FFD100"/>
<path d="M92.9631 12.3127C92.9631 12.3127 93.101 11.8522 92.9653 11.5986C92.9653 11.5986 92.8741 11.1625 92.5804 11.4584C92.5804 11.4584 92.2556 11.7743 92.5137 12.2949C92.5537 12.3705 92.7584 12.6998 92.9631 12.3127Z" fill="#FFD100"/>
<path d="M88.1139 9.93885C88.1139 9.93885 87.9382 10.4617 88.5366 10.6597C88.6278 10.6908 89.0505 10.7798 89.0505 10.2993C89.0505 10.2993 88.9927 9.91438 88.6278 9.7275C88.6256 9.7275 88.263 9.45831 88.1139 9.93885Z" fill="#FFD100"/>
<path d="M146.157 12.5704C145.88 12.577 145.827 12.4117 145.757 12.2629C145.787 12.0381 146.101 12.1736 146.065 11.8628C146.081 11.8661 146.095 11.8661 146.111 11.8694C145.976 11.4363 145.82 11.0164 145.655 10.5998C145.681 10.6792 145.698 10.7619 145.698 10.8511C144.951 11.4198 145.288 12.1935 144.67 12.8117C144.517 12.2001 144.904 11.6347 144.855 10.9933C144.789 10.8181 144.465 10.8412 144.392 10.6726C144.349 9.72369 145.321 9.89892 145.612 10.4974C145.298 9.72039 144.937 8.97317 144.517 8.25902C144.289 8.8277 143.856 9.42282 143.433 9.77659C143.423 9.77659 143.41 9.76998 143.4 9.76998C143.35 9.82949 143.301 9.89892 143.301 9.97497C143.212 9.92537 143.238 9.8328 143.281 9.74353C142.471 9.47242 141.529 7.95815 143.096 8.07718C143.288 7.88541 143.45 7.66389 143.628 7.45229C143.909 7.47874 143.886 7.73663 144.084 7.83252C144.134 7.8226 144.18 7.80276 144.22 7.77961C143.764 7.05885 143.251 6.37777 142.696 5.73635C142.583 6.186 142.633 6.65549 142.269 7.10183C142.058 6.50671 142.382 5.90827 142.269 5.27347C142.187 5.10485 141.866 5.16106 141.777 4.99905C141.763 4.90648 141.763 4.82713 141.77 4.75108C141.664 4.64528 141.562 4.53618 141.453 4.43699C141.529 4.60892 141.611 4.78415 141.615 5.01228C141.367 4.98253 141.601 4.57586 141.294 4.58908C141.327 4.50973 141.41 4.50642 141.439 4.42707C141.284 4.2849 141.125 4.14604 140.967 4.00718C140.976 4.10637 140.986 4.20886 141.016 4.29152C140.891 4.27498 140.768 4.25846 140.643 4.24192C140.636 4.22539 140.633 4.20886 140.626 4.19233C140.024 4.09645 139.254 3.30956 139.462 2.85991C139.032 2.56896 138.589 2.29785 138.13 2.04657C138.143 2.33091 138.193 2.60863 138.391 2.8037C138.199 2.94587 138.067 3.14755 137.69 3.09465C137.627 3.34262 137.769 3.56414 137.67 3.66333C137.273 3.68978 137.505 3.40213 137.498 3.15086C137.343 2.97563 137.098 2.87644 137.078 2.57226C136.797 2.6979 136.665 2.36397 136.463 2.23172C136.143 2.68137 135.673 2.26148 135.329 2.31768C134.539 2.45324 134.81 3.67325 133.709 3.6501C133.789 3.0153 133.111 2.64831 132.625 2.35405C132.427 2.35736 132.446 2.59541 132.179 2.52598C131.825 2.40695 131.795 2.07633 131.504 2.05979C130.949 2.03004 130.876 2.89958 130.347 2.84007C130.33 2.56235 130.377 2.35736 130.496 2.21188C130.254 1.68288 129.679 1.22331 129.011 1.5341C128.869 1.4812 128.998 1.18033 128.962 1.02494C128.657 0.750522 128.545 0.294257 128.264 0C126.601 0.13225 125.024 0.492631 123.549 1.04808C123.519 1.14396 123.437 1.15388 123.357 1.12082C122.789 1.34234 122.237 1.587 121.704 1.86473C121.592 2.0598 121.387 2.12592 121.195 2.14245C118.53 3.64349 116.335 5.83223 114.807 8.47393C115.046 8.74504 115.141 9.15501 114.88 9.49887C114.718 9.43935 114.533 9.39306 114.331 9.36331C113.115 11.7868 112.434 14.5442 112.434 17.4669V17.5628C112.434 27.2435 119.754 35 129.639 35C139.522 35 146.934 27.1476 146.934 17.4669V17.3711C146.934 15.6551 146.7 13.9987 146.266 12.4348C146.214 12.4414 146.161 12.4745 146.157 12.5704ZM114.374 10.5007C114.199 10.4676 113.964 10.4808 113.885 10.3717C113.971 10.2395 114.278 10.4015 114.239 10.1006C114.427 10.1866 114.477 10.3353 114.374 10.5007ZM116.804 7.72671C116.613 7.84574 116.385 7.66389 116.563 7.46221C116.761 7.44568 116.841 7.53164 116.804 7.72671ZM137.723 5.99424C137.928 6.02069 137.839 6.44719 137.644 6.43066C137.65 6.26535 137.637 6.07028 137.723 5.99424ZM135.253 8.91035C135.045 9.1451 134.414 9.36992 134.099 9.00624C133.941 8.21935 135.445 7.85566 135.253 8.91035ZM133.59 3.76582C133.607 4.30144 134.377 4.43369 134.486 5.06187C134.162 5.25694 134.42 6.02069 134.761 6.14302C134.463 6.62573 133.752 6.66871 133.349 7.03901C132.192 6.10004 133.438 4.81721 133.59 3.76582ZM132.509 4.17249C132.324 4.42707 131.719 4.71472 131.372 4.38409C131.134 3.61704 132.592 3.10126 132.509 4.17249ZM131.534 7.8259C131.378 7.96146 131.147 7.91186 131.177 7.65067C131.378 7.64736 131.296 7.86227 131.534 7.8259ZM130.198 6.5001C130.277 6.553 130.294 6.64888 130.287 6.7646C130.228 6.80758 130.142 6.81088 130.029 6.79104C130.043 6.63565 130.155 6.61581 130.198 6.5001ZM129.712 7.26054C129.815 7.2969 129.834 7.22747 129.854 7.15473C130.092 7.14151 129.924 7.43576 130.059 7.49858C129.973 7.58785 129.861 7.63083 129.775 7.71349C129.699 7.60769 129.712 7.42254 129.712 7.26054ZM128.7 3.46826C128.561 3.62035 128.323 3.59389 128.33 3.32939C128.525 3.30625 128.466 3.52777 128.7 3.46826ZM129.001 5.05857C128.595 4.91971 128.591 5.29662 128.254 5.40242C128.023 4.71802 129.051 4.10967 129.001 5.05857ZM128.28 6.48687C128.082 6.51001 128.042 6.38768 127.91 6.3447C127.973 6.20915 128.37 6.27527 128.28 6.48687ZM127.851 6.49348C127.937 6.55961 128.039 6.61251 128.006 6.7679C127.851 6.63896 127.761 6.78113 127.649 6.59267C127.679 6.50671 127.837 6.59598 127.851 6.49348ZM127.236 2.28462C127.318 2.3276 127.348 2.42348 127.351 2.5392C127.295 2.58549 127.209 2.60202 127.097 2.5921C127.094 2.43671 127.203 2.40365 127.236 2.28462ZM127.107 4.17249C127.06 3.9675 127.17 3.93775 127.242 3.8617C127.384 3.91791 127.292 4.25515 127.107 4.17249ZM126.961 2.96901C127.196 2.93265 127.06 3.24013 127.203 3.28972C127.153 3.35254 127.09 3.40214 127.031 3.45173C127.137 3.47487 127.209 3.52777 127.17 3.66002C127.004 3.63688 126.77 3.66333 126.879 3.43189C126.882 3.43189 126.882 3.43189 126.885 3.43189C126.849 3.33271 126.842 3.20376 126.832 3.08804C126.938 3.1178 126.948 3.04506 126.961 2.96901ZM126.783 4.41054C126.859 4.4403 126.912 4.49651 126.902 4.60892C126.829 4.65521 126.73 4.68166 126.584 4.66182C126.611 4.52957 126.763 4.53948 126.783 4.41054ZM126.832 8.39127C126.641 8.37144 126.644 8.15983 126.594 8.00113C126.859 7.96476 126.984 8.22927 126.832 8.39127ZM126.343 2.72105C126.67 2.72105 126.634 3.33932 126.221 3.15086C126.244 2.98555 126.247 2.79048 126.343 2.72105ZM126.637 4.73455C126.617 4.80729 126.634 4.84697 126.684 4.86681C126.617 5.08832 126.34 4.89656 126.32 4.75439C126.178 4.83374 125.916 4.99905 125.745 4.80729C125.93 4.55271 126.29 4.60891 126.637 4.73455ZM126.234 7.67382C126.032 7.70027 126.055 7.55148 125.94 7.50519C125.989 7.30021 126.336 7.43577 126.234 7.67382ZM125.9 0.972039C125.483 0.876158 125.516 1.24977 125.189 1.39193C124.888 0.730684 125.85 0.0264509 125.9 0.972039ZM125.473 4.89656C125.5 5.10485 125.295 5.00236 125.252 5.11808C125.1 5.0255 125.295 4.78415 125.473 4.89656ZM124.898 2.51606C124.991 2.57227 125.097 2.61855 125.083 2.77395C124.918 2.66153 124.839 2.81032 124.713 2.63508C124.726 2.54582 124.895 2.61855 124.898 2.51606ZM123.896 5.31315C124.283 5.62393 124.478 5.52475 124.845 5.31646C124.68 5.88513 124.072 5.72643 123.843 5.69006C123.863 5.56773 123.88 5.43878 123.896 5.31315ZM123.962 7.78292C123.612 7.78292 123.731 7.94162 123.447 8.14661C123.119 7.86227 123.576 7.63083 123.665 7.39609C123.784 7.50519 123.949 7.57793 123.962 7.78292ZM123.645 4.83374C123.744 4.90648 123.843 4.97922 123.787 5.17098C123.602 5.15114 123.5 4.94615 123.645 4.83374ZM123.41 3.85509C123.212 3.90138 123.222 3.74929 123.1 3.71954C123.129 3.50794 123.49 3.60712 123.41 3.85509ZM122.908 3.71623C123.067 3.74268 123.139 3.83856 123.126 4.00057C122.928 4.00388 122.855 3.90799 122.908 3.71623ZM121.82 4.43369C122.005 4.77754 122.399 4.64528 122.809 4.84366C122.881 5.06187 122.835 5.38589 122.974 5.54459C123.242 5.53467 123.417 5.61733 123.596 5.69006C123.275 6.62904 122.392 5.63055 121.698 6.06367C121.612 5.62724 121.509 4.97261 121.82 4.43369ZM117.939 9.01946C117.942 8.67561 118.263 8.76157 118.325 8.49707C118.603 8.65246 118.048 8.88721 117.939 9.01946ZM118.646 8.47723C118.782 8.37474 118.801 8.49046 118.957 8.52022C118.97 8.78802 118.593 8.68883 118.646 8.47723ZM119.268 10.8577C119.063 10.9569 118.858 10.7519 119.053 10.5701C119.254 10.5701 119.327 10.666 119.268 10.8577ZM119.221 4.29152C119.178 4.11959 119.238 3.86832 119.102 3.76252C119.244 3.56084 119.509 3.63357 119.74 3.72284C119.727 3.95097 119.674 4.12951 119.602 4.27829C119.416 4.20886 119.403 4.36095 119.221 4.29152ZM119.803 7.42915C119.684 7.53826 119.631 7.73663 119.496 7.82921C119.294 7.77961 119.446 7.4556 119.449 7.24731C119.651 7.26053 119.697 7.39278 119.939 7.37625C119.929 7.44238 119.853 7.41923 119.803 7.42915ZM120.951 2.7475C120.808 2.56235 120.888 2.84007 120.693 2.77725C120.716 2.66814 120.636 2.63508 120.663 2.51936C120.716 2.43671 120.904 2.5392 120.927 2.4301C121.073 2.4334 120.934 2.64831 120.951 2.7475ZM137.842 17.5562C137.842 22.4197 134.592 26.5624 129.742 26.5624C124.845 26.5624 121.506 22.3238 121.506 17.4603V17.3644C121.506 14.2037 122.885 11.357 125.189 9.74353C124.905 9.64434 124.604 9.55507 124.31 9.70055C124.267 9.25751 124.23 8.59626 124.594 8.0904C124.743 8.45078 125.149 8.36151 125.536 8.59956C125.586 8.82439 125.507 9.14179 125.629 9.31372C125.702 9.32033 125.764 9.33025 125.824 9.34678C126.935 8.7252 128.221 8.36151 129.653 8.36151C129.735 8.36151 129.815 8.37143 129.897 8.37474C129.891 8.37143 129.887 8.37143 129.881 8.36813C129.854 8.15983 129.967 8.14 130.046 8.07387C130.152 8.12677 130.096 8.33837 129.983 8.37805C130.172 8.38466 130.357 8.4078 130.542 8.42764C130.542 8.41772 130.545 8.4078 130.542 8.39788C130.734 8.45078 130.73 8.29539 130.919 8.34829C130.929 8.4045 130.952 8.44748 130.982 8.48715C132.754 8.7781 134.265 9.64104 135.409 10.8908C135.465 10.1271 136.189 9.34678 136.371 8.62271C136.334 9.15502 137.088 9.36662 137.131 10.0014C136.787 10.1634 136.969 10.947 137.297 11.1057C137.016 11.4694 136.497 11.5223 136.077 11.7041C137.204 13.2911 137.842 15.308 137.842 17.4669V17.5562ZM139.181 9.19469C139.042 9.05913 138.98 8.81447 138.946 8.74835C139.099 8.57312 139.366 9.04591 139.181 9.19469ZM139.654 8.26563C139.634 8.15653 139.707 8.14992 139.783 8.1433C139.74 8.0871 139.72 7.99783 139.733 7.89203C139.862 7.95484 139.915 8.08379 139.905 8.27555C139.823 8.27225 139.74 8.26894 139.654 8.26563ZM140.133 11.681C140.157 11.5157 140.16 11.3239 140.256 11.2545C140.457 11.2975 140.325 11.7141 140.133 11.681ZM140.223 6.45711C140.368 6.44389 140.461 6.47364 140.533 6.52985C140.527 6.70839 140.203 6.63565 140.223 6.45711ZM140.596 4.76431C140.454 4.71472 140.276 4.69818 140.157 4.62214C140.18 4.50973 140.269 4.48328 140.418 4.50643C140.206 4.74778 140.656 4.41716 140.596 4.76431ZM141.383 14.5872C141.258 14.4384 141.221 14.1904 141.195 14.1177C141.363 13.959 141.582 14.4549 141.383 14.5872ZM141.281 8.5103C141.297 8.33507 141.396 8.24579 141.601 8.26894C141.638 8.50038 141.466 8.51361 141.281 8.5103ZM142.193 13.7441C142.114 13.7342 142.028 13.721 141.945 13.711C141.939 13.6019 142.008 13.6019 142.087 13.6052C142.051 13.5457 142.041 13.4531 142.064 13.3473C142.183 13.4201 142.223 13.5556 142.193 13.7441ZM142.696 11.9686C142.841 11.9719 142.93 12.0116 142.997 12.0744C142.973 12.2497 142.659 12.1439 142.696 11.9686ZM143.238 10.3221C143.102 10.2593 142.927 10.2262 142.815 10.137C142.848 10.0279 142.94 10.008 143.086 10.0477C142.851 10.2659 143.334 9.98489 143.238 10.3221ZM143.539 14.1177C143.572 13.9458 143.681 13.8664 143.883 13.9127C143.896 14.1442 143.724 14.1408 143.539 14.1177ZM145.404 15.7774C145.251 15.6716 145.493 15.46 145.526 15.3509C145.787 15.4766 145.417 15.5791 145.404 15.7774Z" fill="white"/>
<path d="M176.6 0.842321C176.491 0.832402 176.438 0.881996 176.409 0.961346C176.233 0.967959 176.508 0.647252 176.349 0.832402C176.233 0.822484 176.366 0.723292 176.372 0.600961H170.689V2.64753C170.762 2.68721 170.798 2.75333 170.881 2.78639C170.828 2.82938 170.765 2.85252 170.689 2.86244V6.84648C170.738 6.83325 170.795 6.82333 170.861 6.82664C170.99 7.13081 171.168 7.39201 171.462 7.54409C171.327 7.73255 171.548 7.92431 171.38 8.10946C171.052 8.19543 170.851 8.06979 170.689 7.90117V18.3489C170.699 18.3324 170.712 18.3159 170.722 18.296C170.881 18.3258 170.818 18.5209 170.795 18.6862C170.702 18.7424 170.557 18.7159 170.52 18.8416C170.441 18.6234 170.566 18.5109 170.662 18.382L166.338 12.5332C166.278 12.6126 166.222 12.6919 166.156 12.7647C165.541 12.6622 165.637 12.2687 164.946 12.3448C165.002 11.8356 164.542 11.7133 164.235 11.4818C164.4 10.8305 164.129 10.6751 164.414 10.1726C164.483 10.1792 164.552 10.199 164.622 10.2189L163.561 8.78394C163.455 8.77733 163.441 8.69136 163.316 8.7079C163.336 8.65169 163.365 8.60871 163.395 8.56242L157.507 0.597656H149.225V3.98987C149.387 3.57328 149.542 3.17653 149.423 2.57479C149.889 2.75664 150.336 2.91203 150.775 3.04098C151.109 2.95501 151.427 3.0542 151.622 3.25258C151.658 3.25919 151.698 3.26911 151.734 3.27572C151.78 3.62288 152.085 3.4245 152.111 3.77166C152.422 3.48732 152.266 3.86093 152.511 3.6361C152.604 3.85762 152.147 3.98987 152.213 4.42299C152.256 4.54202 152.432 4.55524 152.428 4.70402C152.425 5.02142 152.19 5.02804 152.157 5.30576C151.87 5.22972 151.932 5.39834 151.688 5.49422C151.78 6.37037 151.39 7.02832 151.155 7.52426C151.046 7.36886 150.865 7.44821 150.828 7.60691C150.593 7.36225 150.382 6.83986 150.537 6.48609C150.398 6.40674 150.088 6.31417 149.816 6.19184C149.992 5.63308 149.549 5.33221 149.228 5.17682V7.73255C149.406 7.58708 149.691 7.57055 150.101 7.82182C149.661 7.85158 149.611 8.38058 149.228 8.67153V12.1629C149.268 12.1563 149.304 12.1464 149.324 12.1067C149.416 12.1728 149.347 12.3018 149.228 12.3415V34.3082H158.013V15.813L171.74 34.3082H179.474V15.0394C179.348 15.0691 179.206 15.079 179.077 15.1088C179.169 14.9137 179.368 14.8641 179.474 14.6922V13.3036C179.401 13.33 179.318 13.3532 179.192 13.3433C179.034 13.1846 179.136 12.9961 179.209 12.7713C179.308 12.7779 179.394 12.7911 179.474 12.811V7.19363C179.183 7.13742 178.958 7.17049 178.74 7.42176C178.518 6.99195 178.488 6.41997 178.164 6.07281C178.29 6.0133 178.33 5.93395 178.201 5.82154C178.478 5.57026 178.855 5.45124 179.209 5.30576C179.159 5.28593 179.15 5.34544 179.021 5.33882C179.004 5.19335 179.037 5.09747 179.093 5.02804C179.156 5.03135 179.219 5.03134 179.282 5.03465C179.278 5.114 179.275 5.19666 179.272 5.27601C179.338 5.24625 179.407 5.2198 179.474 5.18674V0.597656H176.521C176.571 0.663781 176.584 0.753052 176.6 0.842321ZM151.096 8.09955C151.017 8.16898 150.868 8.15906 150.712 8.14914C150.712 7.90117 151.155 7.66643 151.096 8.09955ZM149.674 10.5065C149.82 10.4734 149.998 10.2784 150.127 10.4404C150.094 10.6156 149.849 10.5197 149.674 10.5065ZM150.435 8.19543C150.617 8.3409 150.58 8.51283 150.498 8.64839C150.455 8.60871 150.405 8.56903 150.319 8.55912C150.336 8.40042 150.355 8.25494 150.435 8.19543ZM150.696 8.64839C150.788 8.66492 150.716 8.83684 150.818 8.84015C150.689 8.96579 150.464 8.98562 150.425 9.20714C150.154 9.06497 150.597 8.79717 150.696 8.64839ZM150.868 9.09804C151.132 9.22367 151 9.4485 150.911 9.6634C150.745 9.60058 150.541 9.56422 150.415 9.45842C150.435 9.19722 150.798 9.30302 150.868 9.09804ZM151.136 10.5627C150.924 10.3346 150.95 10.242 150.904 9.92129C151.036 10.0635 151.331 10.2982 151.136 10.5627ZM150.997 10.9958C151.215 10.9958 151.195 11.214 151.36 11.2603C151.288 11.3727 150.739 11.2008 150.997 10.9958ZM152.395 8.7079C152.207 8.70128 152.008 8.70459 152.025 8.50621C152.24 8.49299 152.435 8.37396 152.395 8.7079ZM158.406 2.03918C158.396 2.45908 158.006 2.68721 157.695 2.58471C157.854 2.31691 158.075 2.12184 158.406 2.03918ZM157.1 3.44765C157.176 3.4245 157.229 3.3716 157.232 3.2625C157.543 3.36168 157.041 3.62288 156.908 3.44104C156.895 3.32862 157.163 3.22943 157.1 3.44765ZM156.128 5.02473C156.171 5.24625 156.184 5.18343 156.426 5.19335C156.422 5.35866 156.274 5.33552 156.151 5.34544C156.204 5.15367 156.019 5.15037 155.936 5.0611C155.883 5.04126 155.877 5.07432 155.867 5.114C155.705 5.04126 155.996 4.9586 156.128 5.02473ZM155.559 11.505C155.616 11.2669 155.996 11.462 155.86 11.1611C156.032 11.1049 156.065 11.0487 156.24 11.1512C156.231 11.214 156.158 11.1909 156.108 11.1975C156.002 11.3066 155.923 11.4488 155.86 11.6108C155.705 11.6141 155.738 11.4752 155.559 11.505ZM155.771 13.1912C155.583 13.1482 155.708 12.8605 155.434 12.887C155.497 12.5233 155.936 12.8705 155.771 13.1912ZM155.738 6.36376C155.897 6.60843 156.131 6.77374 156.28 7.0151C156.221 7.17049 156.214 7.37548 156.016 7.38209C155.969 7.01179 155.592 6.73076 155.738 6.36376ZM155.817 4.15849C155.824 4.38662 155.9 4.40316 155.801 4.59823C155.46 4.56847 155.43 4.15519 155.817 4.15849ZM156.317 13.8359C156.207 13.7169 156.237 13.8293 156.069 13.8028C156.095 13.6078 155.999 13.6243 155.933 13.4061C156.035 13.5615 156.422 13.5119 156.317 13.8359ZM155.487 2.81946C155.635 2.82607 155.781 2.82938 155.926 2.83599C155.887 3.07735 155.738 3.20299 155.655 3.39475C155.272 3.36499 155.48 2.90542 155.364 2.75333C155.407 2.64753 155.506 2.71697 155.487 2.81946ZM155.04 1.16303C155.252 1.10682 155.133 1.36471 155.156 1.48373C154.935 1.5201 154.938 1.2556 155.04 1.16303ZM155.239 4.51557C155.278 4.6908 155.11 4.6379 155.103 4.76684C155.017 4.70402 154.911 4.66104 154.925 4.50565C155.05 4.39324 155.037 4.54863 155.239 4.51557ZM155.212 7.03824C155.189 7.16718 155.037 7.15726 155.017 7.2829C154.772 7.1771 155.04 6.85309 155.212 7.03824ZM154.399 3.35177C154.22 3.35838 154.055 3.34846 154.091 3.15339C154.27 3.08726 154.445 3.06743 154.399 3.35177ZM153.962 6.93244C153.84 6.82664 153.883 6.93575 153.711 6.92252C153.718 6.72415 153.622 6.7539 153.536 6.53899C153.658 6.68778 154.035 6.59851 153.962 6.93244ZM153.615 4.2709C153.612 4.33372 153.536 4.31719 153.486 4.33042C153.394 4.44944 153.328 4.59822 153.281 4.76684C153.129 4.78337 153.146 4.64451 152.971 4.6941C153 4.45275 153.4 4.60484 153.235 4.32381C153.4 4.24776 153.43 4.18825 153.615 4.2709ZM153.354 6.34723C153.162 6.32409 153.258 6.02653 152.987 6.07943C153.014 5.71243 153.486 6.00999 153.354 6.34723ZM152.481 2.59133C152.485 2.46569 152.491 2.34005 152.494 2.21441C152.002 2.58141 152.018 1.71847 151.572 1.67549C151.823 1.51679 152.081 1.61599 152.326 1.63913C152.805 1.14319 152.921 2.09869 153.179 2.36319C152.885 2.32683 152.776 2.49214 152.481 2.59133ZM152.891 15.2113C152.984 15.2377 152.891 15.4031 152.994 15.4163C152.852 15.5287 152.627 15.5254 152.564 15.7403C152.309 15.5717 152.779 15.3502 152.891 15.2113ZM153.02 15.6775C153.271 15.8296 153.116 16.0379 153.007 16.2462C152.852 16.1668 152.65 16.1106 152.534 15.9916C152.577 15.7304 152.928 15.8725 153.02 15.6775ZM153.136 17.1587C152.947 16.9107 152.984 16.8214 152.971 16.4974C153.09 16.6528 153.354 16.9173 153.136 17.1587ZM152.954 17.5753C153.172 17.5951 153.129 17.8133 153.288 17.8728C153.205 17.9819 152.676 17.7538 152.954 17.5753ZM153.348 14.7054C153.262 14.765 153.116 14.7418 152.961 14.7154C152.984 14.4707 153.45 14.2789 153.348 14.7054ZM153.602 11.4289C153.129 11.0917 153.321 10.3809 153.265 9.72622C153.939 9.42205 154.627 9.89484 154.498 10.4701C154.379 10.9595 153.714 10.8702 153.602 11.4289ZM154.574 15.4427C154.389 15.4163 154.191 15.3998 154.227 15.2047C154.445 15.2113 154.65 15.1121 154.574 15.4427ZM154.131 9.27657C153.837 9.33278 153.622 9.07489 153.503 9.31625C153.245 9.23028 152.994 9.14102 152.954 8.85337C153.152 8.56903 153.305 8.22849 153.672 8.126C153.757 7.97391 153.496 7.85488 153.681 7.80859C153.893 7.85819 154.237 8.13261 154.511 8.35413C154.763 8.25164 154.997 8.36074 155.225 8.40372C155.751 7.96068 155.771 8.9228 156.002 9.21045C155.715 9.14432 155.589 9.29641 155.285 9.36584C155.301 9.2402 155.318 9.11787 155.335 8.99223C154.905 9.25012 154.892 8.73435 154.663 8.48307C154.769 8.85007 154.201 8.90627 154.131 9.27657ZM156.247 16.1833C155.95 16.2098 155.761 15.9321 155.616 16.1602C155.368 16.0478 155.126 15.9354 155.116 15.6444C155.341 15.3799 155.526 15.0592 155.903 14.9931C156.006 14.8476 155.758 14.7054 155.946 14.679C156.194 14.7616 156.591 15.1882 156.855 15.4427C156.938 15.8263 156.356 15.8196 156.247 16.1833ZM157.113 10.318C156.935 10.3081 156.769 10.2817 156.829 10.0899C157.011 10.0403 157.189 10.037 157.113 10.318ZM156.793 6.19845C156.859 6.0133 156.974 5.89758 157.209 5.94056C157.166 6.14886 156.984 6.18523 156.793 6.19845ZM156.644 4.52218C156.148 4.16841 156.469 3.86093 156.664 3.44434C156.922 3.47079 156.994 3.60304 157.222 3.52038C156.968 3.77827 156.498 3.9535 156.644 4.52218ZM157.328 14.2922C157.097 14.1599 157.394 13.8657 157.55 14.0706C157.513 14.1963 157.365 14.1698 157.328 14.2922ZM157.672 11.7959C157.593 11.7265 157.49 11.6703 157.52 11.5182C157.656 11.419 157.626 11.5744 157.831 11.5612C157.851 11.7397 157.689 11.667 157.672 11.7959ZM157.973 8.20534C158.191 8.17228 158.042 8.41364 158.056 8.53597C157.831 8.54919 157.864 8.28469 157.973 8.20534ZM158.317 14.4905C158.304 14.1169 157.96 13.7995 158.142 13.4491C158.274 13.707 158.492 13.8954 158.614 14.1533C158.542 14.2988 158.512 14.5038 158.317 14.4905ZM158.383 11.7001C158.049 11.6339 158.059 11.2206 158.442 11.2636C158.423 11.4918 158.499 11.5149 158.383 11.7001ZM158.356 10.49C157.976 10.4205 158.231 9.98411 158.132 9.82211C158.188 9.71961 158.28 9.80227 158.247 9.90145C158.393 9.92129 158.542 9.94113 158.684 9.96097C158.621 10.1957 158.459 10.3048 158.356 10.49ZM158.773 9.56091C158.591 9.5047 158.466 9.40221 158.343 9.29641C158.403 9.16416 158.535 9.11126 158.727 9.11787C158.687 9.31625 158.829 9.3427 158.773 9.56091ZM159.401 9.45842C159.451 9.20053 159.576 9.33939 159.781 9.34601C159.775 9.50801 159.57 9.45842 159.401 9.45842ZM159.6 10.6586C159.596 10.5462 159.874 10.4734 159.791 10.685C159.871 10.6685 159.927 10.6222 159.94 10.5164C160.241 10.6487 159.715 10.857 159.6 10.6586ZM160.601 11.0785C160.565 11.2339 160.429 11.2835 160.4 11.4488C160.152 11.3727 160.337 10.9925 160.601 11.0785ZM160.833 16.9372C160.658 16.8644 160.542 16.7487 160.433 16.6297C160.506 16.504 160.641 16.4644 160.833 16.4908C160.773 16.6859 160.912 16.7289 160.833 16.9372ZM160.552 12.5299C160.611 12.3944 160.717 12.3117 160.935 12.3514C160.859 12.4737 160.707 12.6886 160.552 12.5299ZM160.472 9.88823C160.658 9.63696 160.896 9.46834 161.233 9.41874C161.18 9.83533 160.77 10.0238 160.472 9.88823ZM161.306 6.11579C161.438 6.10588 161.464 6.18192 161.547 6.21167C161.54 6.32739 161.454 6.33401 161.451 6.45634C161.249 6.45634 161.266 6.29764 161.306 6.11579ZM161.286 13.0556C161.673 12.8903 161.365 12.6985 161.56 12.434C161.808 12.52 161.577 12.6952 161.669 12.9432C161.537 12.9763 161.484 13.0953 161.286 13.0556ZM161.471 16.9008C161.547 16.6495 161.656 16.7983 161.861 16.8281C161.835 16.9868 161.636 16.9173 161.471 16.9008ZM161.795 7.58046C161.663 7.68957 161.464 7.57716 161.355 7.56393C161.6 7.47797 161.729 7.1242 161.983 7.39862C162.05 7.56393 161.597 7.49119 161.795 7.58046ZM162.499 18.6333C162.446 18.7854 162.307 18.8184 162.261 18.9804C162.023 18.8779 162.245 18.5209 162.499 18.6333ZM162.304 20.0715C162.377 19.9425 162.489 19.8698 162.704 19.9326C162.615 20.045 162.443 20.2434 162.304 20.0715ZM163.372 20.5972C163.24 20.6137 163.174 20.7294 162.982 20.6699C163.382 20.5443 163.098 20.3228 163.316 20.0781C163.554 20.1872 163.306 20.3393 163.372 20.5972ZM163.878 9.97089C164.01 9.96097 164.037 10.037 164.116 10.0734C164.086 10.1792 163.99 10.199 163.851 10.1627C163.861 10.0998 163.871 10.037 163.878 9.97089ZM164.043 15.2741C163.898 15.3667 163.713 15.2377 163.607 15.2146C163.858 15.1551 164.023 14.8145 164.248 15.1121C164.298 15.284 163.855 15.165 164.043 15.2741ZM164.073 13.1813C164.304 13.1779 164.364 13.297 164.49 13.3664C164.404 13.5978 163.994 13.4193 164.073 13.1813ZM165.753 16.6594C165.567 16.6826 165.6 16.547 165.452 16.5536C165.495 16.4644 165.567 16.4082 165.61 16.3222C165.7 16.3652 165.753 16.4313 165.842 16.4809C165.799 16.5239 165.759 16.5735 165.753 16.6594ZM165.865 14.4442C165.706 14.4178 165.769 14.2194 165.792 14.0541C166.024 14.0244 165.845 14.312 165.865 14.4442ZM168.54 20.3525C168.328 20.336 168.252 20.0748 168.404 19.9492C168.467 19.9591 168.53 19.9657 168.589 19.9756C168.573 20.1046 168.556 20.2269 168.54 20.3525ZM170.801 20.9807C170.728 20.9245 170.474 20.9047 170.428 20.9311C170.424 20.7195 170.56 20.8253 170.619 20.4517C170.752 20.4418 170.778 20.5145 170.861 20.5476C170.775 20.6931 170.778 20.746 170.801 20.9807ZM170.821 16.2065C171 16.18 170.97 16.3189 171.122 16.3156C171.119 16.4776 170.672 16.471 170.821 16.2065ZM171.248 10.7908C171.38 10.685 171.274 10.6354 171.291 10.48C171.502 10.4867 171.502 10.8768 171.248 10.7908ZM179.252 9.72622C179.447 9.74606 179.444 9.91468 179.457 10.0701C179.351 10.0502 179.292 10.0932 179.252 10.1693C179.077 10.1593 179.384 9.86509 179.206 10.037C179.07 10.0106 179.308 9.89484 179.252 9.72622ZM178.971 18.22C179.298 18.3655 178.855 18.6101 178.67 18.5572C178.796 18.4746 178.892 18.3522 178.971 18.22ZM176.667 6.37699C176.604 6.60842 176.369 6.62496 176.237 6.76713C176.217 6.78696 176.544 6.15216 176.197 6.12241C176.438 5.79178 176.409 6.3836 176.667 6.37699ZM176.683 9.36253C176.799 9.26665 176.878 9.13771 176.948 8.99554C177.288 9.10796 176.868 9.3956 176.683 9.36253ZM177.07 8.08963C177.172 8.10285 177.275 8.11608 177.381 8.13261C177.358 8.37397 177.229 8.47977 177.017 8.46654C176.898 8.31445 177.073 8.288 177.07 8.08963ZM176.855 13.3433C176.766 13.502 176.293 13.4821 176.438 13.1581C176.667 13.0722 176.663 13.2606 176.855 13.3433ZM176.819 17.2876C176.772 17.4496 176.627 17.4728 176.475 17.4926C176.518 17.4033 176.59 17.3504 176.633 17.2612C176.696 17.2711 176.759 17.2777 176.819 17.2876ZM175.516 3.67578C175.754 3.76174 175.813 3.97334 175.89 4.17502C175.82 4.15188 175.78 4.17502 175.757 4.22131C175.721 3.97004 175.585 3.96343 175.42 3.91714C175.413 3.78158 175.486 3.75513 175.516 3.67578ZM173.552 11.9976C173.628 11.7463 173.744 11.8984 173.942 11.9249C173.932 11.9877 173.926 12.0505 173.916 12.1133C174.567 12.2522 175.089 12.6225 175.774 12.8804C175.566 13.1713 175.552 13.4061 175.285 13.7036C174.769 13.1449 174.111 13.3565 173.671 12.9697C173.886 12.8308 173.995 12.563 174.084 12.2621C174.018 11.9976 173.731 12.2753 173.552 11.9976ZM175.142 10.318C175.066 10.5693 174.375 10.7346 174.26 10.4139C174.627 10.4635 174.722 10.166 175.142 10.318ZM174.388 8.52605C174.425 8.43348 174.488 8.37396 174.524 8.27808C174.587 8.28139 174.65 8.28139 174.713 8.2847C174.683 8.45001 174.537 8.48968 174.388 8.52605ZM175.685 7.37548C175.546 7.27629 175.595 7.21678 175.632 7.05477C175.734 7.04154 175.737 7.12089 175.817 7.12751C175.856 7.29943 175.688 7.24984 175.685 7.37548ZM175.513 5.09416C175.453 5.2727 175.595 5.26278 175.566 5.41156C175.37 5.45124 175.443 5.45124 175.251 5.40164C175.308 5.29584 175.47 5.21649 175.261 5.15037C175.281 5.06441 175.417 5.10408 175.513 5.09416ZM174.448 2.70043C174.584 2.60455 174.868 2.71366 175.08 2.72358C174.987 2.99469 174.802 3.14347 174.458 3.08726C174.527 2.90211 174.379 2.88558 174.448 2.70043ZM174.471 4.36348C174.868 4.20147 175.083 4.53871 175.351 4.33042C175.397 4.76684 174.541 4.78337 174.203 4.85942C174.197 4.59492 174.514 4.67427 174.471 4.36348ZM173.909 4.218C174.127 4.1089 174.144 4.29736 174.342 4.36017C174.273 4.52549 173.8 4.55524 173.909 4.218ZM173.545 9.31625C173.575 9.15093 173.714 9.11126 173.869 9.07489C173.76 9.15755 173.777 9.37576 173.545 9.31625ZM173.764 7.69949C173.559 7.66642 173.443 7.57385 173.423 7.39862C173.602 7.27298 173.846 7.44821 173.764 7.69949ZM172.663 2.32683C172.765 2.34005 172.868 2.35328 172.973 2.36981C172.954 2.51198 172.544 2.66076 172.663 2.32683ZM171.886 2.92195C172.074 2.99469 171.942 3.09719 171.902 3.23935C171.8 3.22613 171.697 3.2129 171.595 3.19637C171.578 2.95832 171.846 3.09718 171.886 2.92195ZM170.848 5.50083C170.98 5.40164 171.033 5.21649 171.234 5.19666C171.188 5.38842 171.086 5.51406 170.848 5.50083ZM171.462 12.9234C171.575 12.7349 171.505 12.7151 171.522 12.4836C171.585 12.4936 171.648 12.5002 171.707 12.5101C171.581 12.7217 171.77 12.9267 171.462 12.9234ZM171.142 4.31058C171.34 4.15188 171.423 3.87085 171.482 3.56337C171.39 3.30878 171.132 3.61296 170.924 3.35507C170.973 3.09718 171.102 3.23605 171.304 3.24266C171.3 3.30548 171.3 3.3683 171.297 3.43112C171.476 3.45096 171.644 3.48732 171.81 3.53692C171.839 3.48732 171.872 3.44434 171.882 3.36499C172.005 3.36168 172.025 3.48732 171.991 3.59643C172.385 3.72207 172.775 3.88738 173.221 4.0064C173.043 4.31719 173.053 4.55194 172.818 4.87595C172.253 4.37009 171.618 4.65112 171.142 4.31058ZM172.997 5.25948C172.891 5.50083 172.557 5.49091 172.494 5.18012C172.639 5.20327 172.732 5.17351 172.749 5.0644C172.878 5.08424 172.868 5.23633 172.997 5.25948ZM171.909 7.4945C171.912 7.51103 171.952 7.02171 172.236 7.1242C172.223 7.23992 172.312 7.25976 172.289 7.38209C172.094 7.34241 172.044 7.46144 171.909 7.4945ZM172.378 8.08301C172.454 7.96068 172.537 7.85158 172.616 7.73255C172.719 7.73255 172.716 7.8086 172.795 7.82182C172.782 7.97722 172.669 8.00366 172.626 8.11938C172.517 7.99375 172.547 8.10946 172.378 8.08301ZM173.529 16.7718C172.98 16.8545 172.828 16.4148 172.603 16.1337C172.603 15.9585 172.844 15.7205 172.679 15.575C172.798 15.489 172.93 15.4163 173.142 15.4427C173.238 15.7601 173.39 16.0379 173.668 16.2164C173.516 16.3916 173.717 16.6032 173.529 16.7718ZM173.261 14.1268C173.403 14.0409 173.473 13.8623 173.678 13.8623C173.612 14.0475 173.496 14.1632 173.261 14.1268ZM174.504 16.1404C174.312 16.0841 174.253 16.1966 174.114 16.2131C174.117 16.2329 174.207 15.7469 174.478 15.8792C174.451 15.9949 174.537 16.0246 174.504 16.1404ZM174.927 13.9715C175.073 14.0078 175.165 13.9913 175.192 13.8822C175.318 13.9186 175.294 14.0673 175.42 14.1037C175.291 14.3318 174.96 14.2855 174.927 13.9715ZM175.556 18.1935C175.602 18.0315 175.744 18.0084 175.899 17.9886C175.787 18.058 175.78 18.2762 175.556 18.1935ZM175.88 5.19004C175.714 5.30907 175.995 5.08424 176.028 5.02143C176.187 5.02804 176.21 5.14706 176.326 5.19004C176.296 5.34874 176.2 5.42148 176.042 5.40495C176.098 5.20988 176.005 5.08755 175.88 5.19004ZM176.157 19.3573C176.518 19.4433 176.64 19.1557 177.043 19.354C176.941 19.5954 176.237 19.6913 176.157 19.3573ZM177.88 16.4776C177.751 16.3652 177.807 16.309 177.86 16.1536C177.966 16.1503 177.959 16.2296 178.039 16.2462C178.062 16.4214 177.9 16.3553 177.88 16.4776ZM177.963 14.5137C177.764 14.5335 177.837 14.5401 177.652 14.4707C177.718 14.3715 177.887 14.3087 177.685 14.2227C177.715 14.1401 177.847 14.1963 177.943 14.193C177.863 14.3649 178.009 14.3682 177.963 14.5137ZM177.857 13.416C177.86 13.8557 177.007 13.783 176.66 13.826C176.683 13.5615 176.987 13.6739 176.977 13.3598C177.387 13.2408 177.572 13.5945 177.857 13.416ZM177.447 5.47438C177.377 5.79509 177.024 5.80501 176.743 5.89428C176.832 5.63639 177.116 5.59671 177.143 5.27601C177.321 5.2694 177.354 5.40495 177.447 5.47438ZM177.196 3.63941C177.169 3.7915 177.308 3.78158 177.248 3.96012C177.053 3.94028 176.997 4.12543 176.676 4.12874C176.501 3.98657 176.584 3.78819 176.633 3.55675C176.862 3.54683 177.04 3.57659 177.196 3.63941Z" fill="#FFD100"/>
</g>
<defs>
<clipPath id="clip0_416_753">
<rect width="180" height="40" fill="white"/>
</clipPath>
</defs>
</svg>
