<svg width="458" height="121" viewBox="0 0 458 121" fill="none" xmlns="http://www.w3.org/2000/svg">
<path d="M54.1467 5.2L60.5967 18.1C70.4967 16 81.5967 13.6 88.4967 12.7C94.9467 14.35 100.197 17.05 102.147 22.45C99.5967 24.7 100.947 28.6 102.297 30.85C101.547 31.3 100.797 31.6 99.8967 31.9L99.5967 31C98.6967 30.55 97.9467 30.4 97.4967 30.4C96.8967 30.4 96.4467 30.85 96.4467 31.45C96.4467 31.9 96.5967 32.35 96.7467 32.65C87.7467 34.45 74.5467 33.25 62.0967 38.65H59.9967V37C58.6467 36.85 57.5967 37.6 56.6967 38.8C51.5967 39.4 49.9467 41.35 46.7967 50.8C46.3467 52.15 44.5467 53.95 43.6467 54.7L44.9967 55.45C44.2467 58.6 41.9967 64.6 40.4967 64.45C38.8467 64.3 40.3467 61.3 39.4467 61.45C37.7967 61.75 37.6467 65.05 36.8967 67.45C37.6467 69.4 37.7967 70.6 37.7967 71.8C37.0467 73.75 36.2967 77.05 35.2467 77.05C33.7467 77.05 34.6467 74.2 34.0467 73C32.6967 75.85 31.6467 78.55 30.5967 81.1L31.7967 81.85C32.5467 80.5 33.2967 80.05 34.6467 80.35C31.7967 88.15 29.2467 95.95 27.5967 102.7C23.9967 103 20.3967 102.55 17.8467 101.95L18.4467 100.3C14.5467 98.95 14.8467 93.85 14.2467 88C13.6467 87.25 13.0467 85.9 13.0467 84.85C13.0467 81.1 21.5967 58.9 29.0967 41.8H17.3967C10.7967 41.8 10.3467 43.9 5.54668 42.7C3.29668 39.25 0.59668 32.65 0.59668 28.15C0.59668 26.35 1.19668 24.7 2.69668 23.2C8.54668 23.8 22.4967 24.4 31.6467 22.6C46.7967 19.45 40.1967 5.2 54.1467 5.2ZM42.2967 58.15L41.6967 57.1L40.1967 59.8L41.0967 60.85L42.2967 58.15ZM173.415 55C173.415 59.95 170.865 66.7 165.465 71.05C166.215 72.55 165.165 74.2 163.515 74.2L162.465 72.25C161.265 72.55 160.365 73.15 161.265 74.8C159.615 74.8 156.915 76.15 156.915 77.8C156.915 80.05 154.365 79.3 152.565 79.75C150.915 81.4 149.565 83.35 147.765 85.75L146.115 84.25C142.215 86.65 144.315 88.3 140.265 90.25C137.865 91.45 135.015 91.3 132.315 91.9C131.865 92.35 133.665 92.95 133.515 93.55L130.815 94.45L126.615 91.9C124.215 93.4 126.015 96.85 123.015 97.9C119.415 99.1 116.565 100.15 112.365 101.5C109.815 98.95 106.815 99.85 104.715 101.5C99.4654 98.2 93.0154 93.25 89.1154 89.95C85.5154 87.1 84.3154 79.75 84.3154 72.55C84.3154 36.1 129.765 12.55 141.015 12.55C145.365 12.55 147.465 15.25 152.115 18.85C152.115 25.75 159.465 31.3 165.615 35.5C171.465 39.4 173.415 46.9 173.415 55ZM134.565 89.8C134.565 88.75 133.815 88.3 132.315 88.3C132.315 88.75 131.715 89.8 132.015 90.1C132.615 90.55 133.815 90.1 134.565 89.8ZM157.665 50.05L149.265 40.3C148.815 38.95 148.515 38.05 147.915 38.65C147.315 39.25 146.715 39.55 146.265 39.55C145.215 39.55 144.615 38.35 144.465 38.35C136.515 38.35 122.715 47.5 116.415 57.4C109.215 60.85 104.265 69.4 100.965 79.75C104.415 79.45 108.915 79.15 111.615 78.1L138.615 66.85C141.615 65.65 148.065 62.5 150.915 58.9L157.665 50.05ZM141.165 85.45L140.415 83.95C137.715 85.3 136.665 86.05 136.815 87.7L141.165 85.45ZM108.615 61.3L112.065 57.1C109.815 55.75 107.115 57.85 106.815 59.5C106.815 60.4 107.265 61.15 108.615 61.3ZM108.165 98.05L112.665 98.8C112.065 97.9 111.015 97.15 109.965 97.15C109.365 97.3 108.765 97.45 108.165 98.05ZM145.815 82.75C145.365 82.3 145.065 80.65 144.615 80.35L142.215 82.9L142.815 84.55L145.815 82.75ZM278.46 43.45C275.91 47.35 272.31 53.05 269.01 56.2C267.96 57.25 266.16 58 264.96 57.85L267.21 55.45C266.31 55.15 264.81 55.3 263.91 56.2C263.01 57.1 260.61 59.05 257.61 61.45L260.31 62.05C243.96 76.15 223.86 88.6 206.46 96.25L205.11 104.5C202.26 103 200.01 104.5 196.86 104.5C187.71 104.5 184.71 94.45 181.41 90.1C182.01 88.45 182.46 86.5 182.61 84.4L186.36 82.75C188.46 81.7 189.96 80.8 191.01 78.25C193.41 72.7 194.46 67.9 196.26 61.3L195.66 59.05C197.76 52.3 202.41 47.2 202.71 41.35C202.86 37.15 197.31 34.45 197.46 30.7C197.61 26.8 204.96 24.85 208.86 22.75L210.36 23.8C217.41 16.15 217.86 0.699991 225.81 0.699991C227.16 0.699991 232.56 9.54999 233.31 11.5C233.91 13.9 232.56 16.75 231.96 19.9C237.06 19.9 242.61 18.4 250.26 19.45C248.76 22.3 253.26 21.55 254.16 19.45C255.66 20.65 259.86 20.2 263.16 21.25C276.96 25.45 277.71 37 278.46 43.45ZM269.76 52.6L267.81 52.15L266.61 53.5L268.56 53.95L269.76 52.6ZM263.16 33.1C237.81 33.1 228.51 41.2 220.41 43.75L220.26 48.4C219.66 49.15 218.46 49.6 217.56 50.65V50.8C219.96 48.85 219.66 55.6 218.31 55.6C217.56 55.45 216.96 55.15 216.36 54.7V54.85C216.96 55.75 217.26 56.8 217.41 58C217.26 61.45 214.26 65.65 213.51 71.35C218.91 68.05 231.06 63.25 238.56 56.8C239.16 57.4 239.76 57.4 240.81 57.7L239.91 55.6L241.26 54.7C241.86 55.75 242.46 55.9 242.76 55.9C244.26 55.9 247.11 53.5 252.36 47.35C256.26 48.7 264.06 38.65 263.16 33.1ZM255.36 64.3L254.01 63.85L249.06 66.55C249.96 67.15 251.16 67.45 252.21 66.55L255.36 64.3ZM249.81 68.5V68.35C247.11 68.35 244.71 69.85 241.71 71.8C238.41 73.9 233.16 76.9 228.36 79.9C228.21 80.8 227.76 81.85 226.71 82.45C225.66 81.4 224.01 81.85 222.36 83.35C223.26 83.35 224.76 83.8 225.81 84.4C234.36 79.15 242.91 72.85 249.81 68.5ZM213.51 90.4V90.55L221.16 86.8C220.56 86.5 220.11 85.15 220.86 84.25V84.1C218.61 85.3 214.86 88.75 213.51 90.4ZM211.71 89.8L207.06 92.35L206.76 93.85L210.96 91.6L211.71 89.8ZM352.375 70.75C349.675 71.05 346.825 71.65 344.275 71.95C343.075 74.5 343.525 81.1 340.375 84.1C342.475 85.3 341.275 89.05 339.325 90.85C340.225 93.1 340.825 94.75 337.675 98.95C337.525 99.55 339.025 98.8 339.325 98.5C339.025 103.6 337.825 107.65 336.325 112.15C331.675 112.15 327.475 107.65 325.075 108.55C325.225 105.55 324.775 104.35 322.675 104.35L322.825 102.25C323.575 102.25 324.175 101.8 324.325 100.75C323.575 100.75 322.975 100.3 322.975 99.25C323.275 95.8 325.075 91.45 325.975 86.95C327.025 86.95 327.025 88.9 326.875 91.15C327.925 91.15 329.575 85 329.875 81.55L328.075 80.8C327.925 83.2 327.925 86.5 326.125 85.75C326.575 83.65 327.025 78.4 327.475 76.6L330.025 79.75C329.875 77.95 330.625 77.5 330.325 75.25C321.775 74.95 299.125 87.1 292.375 91.75L291.625 93.7L292.225 95.5C289.675 100.75 287.425 106.9 285.025 110.05L275.575 106C275.125 101.35 268.675 99.4 270.325 95.5H267.925C271.225 72.85 296.275 48.55 310.375 29.65C317.425 20.35 324.475 14.05 330.325 9.4C331.375 8.5 335.575 10 335.875 7.15C337.825 7.75 342.025 9.54999 344.275 11.35L341.575 12.25C341.425 14.8 345.175 11.95 345.925 12.55C351.475 17.35 348.325 25.45 351.175 29.8C351.325 30.55 351.025 43.45 348.775 44.8C349.075 45.1 349.225 45.1 349.675 45.4C348.775 48.7 347.575 53.05 347.275 57.25C347.125 59.05 352.825 64.15 352.375 70.75ZM340.225 27.85L339.775 26.35C336.925 26.5 330.025 34.9 323.575 43.45L322.825 42.7C323.275 41.5 323.725 40.6 323.125 40C320.725 42.7 319.675 44.05 321.025 46.9C318.775 49.9 316.675 52.6 314.725 55C312.025 58.45 307.975 64.9 304.525 69.85C307.525 68.05 309.775 64.9 315.775 62.35C321.025 60.1 324.175 59.5 329.575 58C330.025 54.1 331.525 51.25 332.125 49.15L334.675 51.4C336.475 46.75 338.575 34.6 340.225 27.85ZM333.025 56.05H331.375C330.775 57.85 331.825 57.85 332.875 57.7L333.025 56.05ZM332.875 55.15L332.725 53.65L332.125 53.5L331.525 55.15H332.875ZM327.625 91.75L326.725 92.2L326.125 94.15H327.025L327.625 91.75ZM306.475 80.65C304.525 79.15 299.575 82.45 296.725 83.95C295.975 85 295.675 85.6 295.075 86.65L306.475 80.65ZM308.275 79.75C309.625 79 311.875 78.1 313.525 77.05V76.9C310.225 77.05 308.875 77.35 308.275 79.75ZM338.275 30.55L337.075 35.2H335.725L336.925 31.15L338.275 30.55ZM298.225 81.25C298.825 80.95 302.275 79.75 303.175 77.65C301.975 78.1 301.075 78.25 300.025 78.7L298.225 81.25ZM416.775 82.45L415.725 83.5L413.625 81.55C412.125 82.75 409.575 84.55 412.425 88.15C411.225 89.95 410.025 92.2 408.825 94.6C407.475 95.2 406.275 96.1 405.225 97.15L406.425 100.15L405.825 101.2L404.025 98.8C401.625 102.1 399.975 106.75 399.225 111.25L402.075 112.6C401.475 115 401.175 117.4 401.025 119.35C399.825 119.95 397.875 120.25 396.375 120.25C391.425 120.25 387.675 118.45 385.275 116.35C385.125 114.85 384.225 114.25 383.175 114.25C381.975 112.75 381.525 111.55 381.675 111.1C384.075 98.5 393.675 84.55 399.825 67.3L398.775 66.4C394.125 66.4 390.375 65.5 386.325 63.55C385.725 64.45 384.825 64.75 383.625 63.55L373.725 53.8H371.925C362.775 40.45 369.525 24.85 377.775 11.05L379.875 11.95C380.175 11.2 380.475 10.6 380.775 10.3C381.225 9.85 381.675 9.54999 382.125 9.54999C383.025 9.54999 390.525 12.7 394.275 14.35L396.675 18.55C395.325 27.1 389.925 31.3 389.025 40L386.775 41.8C385.725 48.1 386.325 51.85 389.925 56.5C399.975 57.4 407.775 52.75 412.275 46.45L428.175 24.1L429.375 26.05L435.375 17.35C436.425 15.85 437.775 15.85 439.125 16.9C443.025 13.75 446.325 13.45 449.025 14.8C448.875 16.6 449.625 17.35 452.175 17.65C453.825 19.9 455.025 23.05 455.625 26.5C454.125 30.25 451.725 33.85 448.575 37.45C442.725 36.55 442.125 39.25 440.175 43.3L442.275 44.35C436.425 50.5 430.575 56.5 428.625 62.2L426.525 60.25C426.375 66.25 422.025 70.15 419.775 73.6C418.725 75.25 419.025 77.35 418.725 79.15L417.225 78.1C417.375 77.05 417.375 76.15 416.625 75.55C414.975 78.4 414.075 79.6 416.775 82.45ZM400.575 113.5L398.925 112.75L398.475 115.3L399.675 115.9L400.575 113.5ZM444.375 42.1L443.475 40.3C444.225 39.55 445.575 37.9 447.375 38.8C446.475 39.85 445.425 41.05 444.375 42.1ZM413.175 89.05L414.675 90.4C414.225 91.3 413.325 92.05 411.825 91.45L413.175 89.05ZM404.475 105.4L402.375 111.4C400.425 110.05 401.775 106.15 404.325 105.25L404.475 105.4ZM457.615 95.35C456.865 98.8 449.365 108.25 443.965 110.05L435.715 100.6L437.215 98.65C433.615 90.4 439.615 79.45 445.465 79.45C450.265 79.45 455.365 87.1 457.615 95.35Z" fill="#F8D000"/>
</svg>
